<svg id="svg" version="1.1" xmlns="http://www.w3.org/2000/svg" xmlns:xlink="http://www.w3.org/1999/xlink" width="400" height="400" viewBox="0, 0, 400,400"><g id="svgg"><path id="path0" d="M41.755 143.500 C 41.899 144.325,42.192 146.800,42.407 149.000 C 42.622 151.200,42.969 154.620,43.178 156.600 C 44.143 165.719,44.472 168.858,44.823 172.300 C 45.030 174.335,45.380 177.710,45.600 179.800 C 45.820 181.890,46.170 185.265,46.377 187.300 C 46.728 190.746,47.067 193.977,48.022 203.000 C 48.231 204.980,48.585 208.556,48.807 210.946 C 49.380 217.102,49.043 217.009,54.817 212.598 C 57.558 210.505,63.220 206.185,67.400 202.998 C 89.609 186.067,91.200 184.824,91.200 184.407 C 91.200 184.214,89.175 182.669,86.700 180.972 C 73.396 171.851,64.022 164.019,51.432 151.508 C 40.807 140.949,41.398 141.438,41.755 143.500 M351.400 149.115 C 338.924 162.033,324.671 173.720,311.502 181.831 C 305.006 185.832,302.000 187.796,302.000 188.039 C 302.000 188.295,305.315 189.739,323.200 197.275 C 326.830 198.805,333.014 201.419,336.942 203.085 C 341.855 205.168,344.171 205.970,344.366 205.655 C 344.522 205.403,346.678 195.702,349.157 184.098 C 353.527 163.642,355.557 154.215,357.259 146.472 C 357.709 144.422,358.016 142.687,357.939 142.617 C 357.863 142.546,354.920 145.471,351.400 149.115 M92.989 186.900 C 93.298 188.690,98.453 220.394,100.029 230.200 C 100.736 234.600,101.437 238.339,101.587 238.509 C 101.831 238.788,103.062 238.321,108.200 236.003 C 111.546 234.494,137.812 222.712,147.000 218.599 C 152.280 216.235,156.646 214.263,156.702 214.216 C 156.757 214.169,153.967 213.083,150.502 211.804 C 128.576 203.711,110.606 195.645,96.990 187.784 C 92.534 185.212,92.703 185.249,92.989 186.900 M295.400 191.441 C 277.856 201.232,258.896 209.474,245.800 213.001 C 239.612 214.668,237.473 215.159,234.400 215.620 C 232.530 215.901,230.856 216.254,230.679 216.406 C 230.410 216.637,237.503 222.832,260.596 242.533 C 262.358 244.036,265.298 246.556,267.128 248.133 C 268.959 249.710,270.649 251.000,270.884 251.000 C 271.475 251.000,271.604 250.748,276.400 240.200 C 276.900 239.100,278.095 236.518,279.055 234.463 C 280.015 232.408,280.800 230.674,280.800 230.611 C 280.800 230.548,281.680 228.630,282.756 226.348 C 283.831 224.067,286.154 219.050,287.917 215.200 C 289.680 211.350,291.700 206.940,292.407 205.400 C 293.114 203.860,294.147 201.610,294.702 200.400 C 295.257 199.190,296.475 196.564,297.408 194.565 C 299.063 191.020,299.784 189.196,299.527 189.204 C 299.457 189.207,297.600 190.213,295.400 191.441 " stroke="none" fill="#fa7171" fill-rule="evenodd"></path><path id="path1" d="M0.000 200.000 L 0.000 400.000 200.000 400.000 L 400.000 400.000 400.000 200.000 L 400.000 0.000 200.000 0.000 L 0.000 0.000 0.000 200.000 M52.048 150.915 C 63.944 162.767,71.126 168.917,83.249 177.635 C 86.918 180.274,93.947 184.971,95.700 185.957 C 96.525 186.421,97.875 187.190,98.700 187.666 C 105.433 191.554,116.288 196.890,125.000 200.595 C 127.052 201.467,128.915 202.276,131.200 203.286 C 132.410 203.821,134.030 204.491,134.800 204.776 C 135.570 205.061,136.740 205.528,137.400 205.814 C 138.060 206.100,139.410 206.636,140.400 207.004 C 141.390 207.373,142.560 207.819,143.000 207.997 C 143.440 208.174,144.430 208.536,145.200 208.800 C 145.970 209.064,146.960 209.425,147.400 209.602 C 151.273 211.159,154.681 212.404,155.063 212.402 C 155.318 212.401,156.398 212.828,157.463 213.351 C 158.528 213.873,160.210 214.524,161.200 214.797 C 162.190 215.070,163.450 215.435,164.000 215.608 C 165.453 216.066,168.226 216.681,171.200 217.204 C 172.630 217.455,174.610 217.816,175.600 218.005 C 184.386 219.687,202.956 219.523,218.400 217.628 C 222.672 217.103,227.324 216.472,228.047 216.318 C 229.544 215.999,227.097 218.640,207.800 238.169 C 185.156 261.086,186.193 260.243,184.378 257.200 C 183.787 256.210,181.819 252.970,180.003 250.000 C 178.187 247.030,175.668 242.890,174.405 240.800 C 173.142 238.710,171.160 235.470,170.001 233.600 C 168.842 231.730,167.579 229.660,167.195 229.000 C 166.811 228.340,165.011 225.370,163.195 222.400 C 161.379 219.430,159.545 216.424,159.119 215.721 L 158.345 214.441 156.873 215.186 C 156.063 215.596,154.545 216.307,153.500 216.766 C 151.568 217.614,149.708 218.438,146.300 219.954 C 145.255 220.420,143.545 221.177,142.500 221.638 C 141.455 222.099,139.655 222.909,138.500 223.438 C 137.345 223.967,135.455 224.833,134.300 225.362 C 133.145 225.891,131.390 226.681,130.400 227.117 C 129.410 227.552,127.745 228.289,126.700 228.754 C 125.655 229.220,123.945 229.977,122.900 230.438 C 121.855 230.899,120.055 231.709,118.900 232.238 C 117.745 232.767,115.855 233.633,114.700 234.162 C 113.545 234.691,111.700 235.522,110.600 236.008 C 109.500 236.494,107.790 237.250,106.800 237.688 C 100.809 240.339,100.886 240.324,100.589 238.923 C 100.459 238.305,100.263 237.440,100.155 237.000 C 100.047 236.560,99.781 235.030,99.565 233.600 C 99.055 230.234,98.165 224.739,97.200 219.000 C 97.015 217.900,96.663 215.740,96.417 214.200 C 95.581 208.954,94.717 203.667,94.000 199.400 C 93.378 195.698,92.802 192.016,92.444 189.443 C 91.812 184.904,92.751 184.556,80.768 193.776 C 79.356 194.863,76.310 197.190,74.000 198.947 C 71.690 200.703,68.720 202.977,67.400 204.000 C 66.080 205.023,63.110 207.296,60.800 209.052 C 58.490 210.808,55.123 213.375,53.319 214.755 C 49.147 217.947,48.689 217.895,48.323 214.196 C 48.171 212.658,47.846 209.510,47.600 207.200 C 47.108 202.569,46.614 197.789,46.030 192.000 C 45.819 189.910,45.447 186.310,45.202 184.000 C 44.958 181.690,44.597 178.270,44.400 176.400 C 43.715 169.891,43.155 164.578,42.797 161.200 C 42.599 159.330,42.263 155.910,42.051 153.600 C 41.839 151.290,41.570 148.860,41.452 148.200 C 40.871 144.933,40.815 140.800,41.353 140.800 C 41.651 140.800,46.464 145.352,52.048 150.915 M359.243 141.624 C 359.157 141.941,358.948 142.920,358.778 143.800 C 358.327 146.143,357.620 149.557,357.183 151.500 C 356.686 153.707,356.180 156.066,355.618 158.800 C 355.369 160.010,354.993 161.765,354.783 162.700 C 354.286 164.907,353.780 167.266,353.218 170.000 C 352.969 171.210,352.593 172.965,352.383 173.900 C 352.172 174.835,351.840 176.365,351.644 177.300 C 351.448 178.235,351.068 179.990,350.800 181.200 C 350.532 182.410,350.152 184.165,349.956 185.100 C 349.760 186.035,349.440 187.565,349.244 188.500 C 349.048 189.435,348.668 191.190,348.400 192.400 C 348.132 193.610,347.752 195.365,347.556 196.300 C 347.360 197.235,347.040 198.765,346.844 199.700 C 346.648 200.635,346.292 202.350,346.052 203.511 C 345.639 205.512,344.975 207.200,344.601 207.200 C 344.400 207.200,340.733 205.770,339.000 205.015 C 338.340 204.728,336.947 204.112,335.904 203.647 C 334.862 203.181,333.915 202.800,333.800 202.800 C 333.685 202.800,332.783 202.440,331.796 202.000 C 330.808 201.560,329.192 200.840,328.204 200.400 C 327.217 199.960,326.315 199.600,326.200 199.600 C 326.003 199.600,325.229 199.269,320.704 197.247 C 319.662 196.781,318.715 196.400,318.600 196.400 C 318.485 196.400,317.538 196.019,316.496 195.553 C 315.453 195.088,314.015 194.458,313.300 194.153 C 312.585 193.849,311.325 193.312,310.500 192.959 C 309.675 192.607,308.640 192.175,308.200 192.000 C 306.764 191.429,304.225 190.325,303.039 189.756 C 301.549 189.043,300.400 189.045,300.400 189.762 C 300.400 190.071,300.048 191.016,299.617 191.862 C 299.186 192.708,298.175 194.840,297.370 196.600 C 295.999 199.599,295.457 200.776,292.400 207.400 C 291.740 208.830,290.660 211.170,290.000 212.600 C 289.340 214.030,288.260 216.370,287.600 217.800 C 286.940 219.230,285.860 221.570,285.200 223.000 C 282.745 228.319,281.487 231.056,280.556 233.100 C 280.030 234.255,279.170 236.145,278.644 237.300 C 277.125 240.636,275.409 244.353,273.847 247.689 C 273.051 249.387,272.400 250.956,272.400 251.175 C 272.400 252.802,270.831 252.256,267.517 249.475 C 262.101 244.931,256.618 240.271,256.400 240.025 C 256.290 239.901,255.030 238.815,253.600 237.610 C 252.170 236.406,250.910 235.326,250.800 235.210 C 250.690 235.095,249.430 234.010,248.000 232.800 C 246.570 231.590,244.950 230.214,244.400 229.742 C 243.850 229.271,240.197 226.145,236.282 222.796 C 232.367 219.447,229.227 216.520,229.303 216.291 C 229.472 215.783,232.596 214.814,234.094 214.806 C 235.106 214.800,237.254 214.383,240.200 213.619 C 245.866 212.150,248.184 211.515,249.000 211.207 C 249.440 211.041,251.060 210.512,252.600 210.032 C 254.140 209.552,255.760 209.006,256.200 208.818 C 256.640 208.631,258.080 208.083,259.400 207.600 C 262.354 206.519,262.911 206.296,265.296 205.240 C 266.338 204.778,267.285 204.400,267.400 204.400 C 268.415 204.400,287.179 195.169,293.400 191.610 C 294.280 191.106,296.169 190.073,297.598 189.313 C 299.027 188.553,301.959 186.776,304.112 185.365 C 306.266 183.954,308.115 182.800,308.221 182.800 C 308.630 182.800,323.956 172.322,327.000 169.962 C 336.074 162.926,346.310 153.432,355.763 143.281 C 357.940 140.944,359.650 140.129,359.243 141.624 " stroke="none" fill="#fcfbfb" fill-rule="evenodd"></path><path id="path2" d="M159.327 215.100 C 159.792 215.904,174.620 240.259,178.382 246.400 C 180.741 250.250,183.375 254.612,184.235 256.092 C 185.096 257.573,185.981 258.788,186.202 258.792 C 186.783 258.803,227.898 217.348,227.581 217.071 C 227.482 216.984,224.970 217.240,222.000 217.641 C 198.376 220.826,177.014 220.159,162.971 215.797 C 159.544 214.733,159.060 214.640,159.327 215.100 " stroke="none" fill="#b750eb" fill-rule="evenodd"></path><path id="path3" d="M41.206 142.100 C 41.211 142.752,41.306 142.852,41.554 142.461 C 41.804 142.066,44.278 144.308,50.847 150.885 C 64.001 164.054,75.438 173.551,88.800 182.402 C 90.230 183.349,91.477 184.188,91.571 184.266 C 91.665 184.344,91.452 184.631,91.099 184.904 C 85.227 189.433,68.008 202.602,61.424 207.600 C 58.381 209.910,54.554 212.860,52.921 214.155 C 49.832 216.605,49.384 216.657,49.091 214.600 C 48.955 213.645,48.908 213.748,48.860 215.100 C 48.775 217.511,49.335 217.350,54.326 213.525 C 59.005 209.940,63.364 206.604,68.600 202.600 C 77.342 195.915,84.351 190.552,88.369 187.474 C 90.002 186.223,91.592 185.200,91.903 185.200 C 93.165 185.200,91.897 184.027,87.049 180.711 C 77.010 173.845,69.192 167.652,59.413 158.821 C 56.880 156.534,47.701 147.345,44.077 143.470 C 41.764 140.996,41.197 140.725,41.206 142.100 M41.676 145.800 C 41.667 146.680,41.803 148.210,41.980 149.200 L 42.300 151.000 42.327 149.200 C 42.342 148.210,42.205 146.680,42.023 145.800 L 41.692 144.200 41.676 145.800 M42.480 153.400 C 42.468 154.280,42.603 155.810,42.780 156.800 L 43.100 158.600 43.120 157.000 C 43.132 156.120,42.997 154.590,42.820 153.600 L 42.500 151.800 42.480 153.400 M43.269 161.400 C 43.256 162.280,43.395 163.720,43.577 164.600 L 43.908 166.200 43.931 164.600 C 43.944 163.720,43.805 162.280,43.623 161.400 L 43.292 159.800 43.269 161.400 M44.069 169.000 C 44.056 169.880,44.195 171.320,44.377 172.200 L 44.708 173.800 44.731 172.200 C 44.744 171.320,44.605 169.880,44.423 169.000 L 44.092 167.400 44.069 169.000 M44.869 176.600 C 44.856 177.480,44.995 178.920,45.177 179.800 L 45.508 181.400 45.531 179.800 C 45.544 178.920,45.405 177.480,45.223 176.600 L 44.892 175.000 44.869 176.600 M45.669 184.200 C 45.656 185.080,45.795 186.520,45.977 187.400 L 46.308 189.000 46.331 187.400 C 46.344 186.520,46.205 185.080,46.023 184.200 L 45.692 182.600 45.669 184.200 M294.283 191.489 C 292.569 192.485,291.236 193.369,291.322 193.455 C 291.489 193.623,298.000 190.018,298.000 189.757 C 298.000 189.414,297.273 189.752,294.283 191.489 M299.055 191.055 C 298.676 191.849,298.453 192.586,298.559 192.693 C 298.666 192.799,299.036 192.209,299.382 191.382 C 300.198 189.429,299.949 189.180,299.055 191.055 M46.480 191.800 C 46.468 192.680,46.603 194.210,46.780 195.200 L 47.100 197.000 47.120 195.400 C 47.132 194.520,46.997 192.990,46.820 192.000 L 46.500 190.200 46.480 191.800 M297.035 195.435 C 296.460 196.693,296.063 197.796,296.153 197.887 C 296.244 197.977,296.789 197.022,297.365 195.765 C 297.940 194.507,298.337 193.404,298.247 193.313 C 298.156 193.223,297.611 194.178,297.035 195.435 M289.400 194.155 C 288.960 194.416,287.457 195.221,286.060 195.942 C 284.662 196.662,283.591 197.324,283.678 197.412 C 283.859 197.593,290.800 194.052,290.800 193.778 C 290.800 193.496,290.266 193.639,289.400 194.155 M47.269 199.800 C 47.256 200.680,47.395 202.120,47.577 203.000 L 47.908 204.600 47.931 203.000 C 47.944 202.120,47.805 200.680,47.623 199.800 L 47.292 198.200 47.269 199.800 M294.635 200.635 C 294.060 201.893,293.663 202.996,293.753 203.087 C 293.844 203.177,294.389 202.222,294.965 200.965 C 295.540 199.707,295.937 198.604,295.847 198.513 C 295.756 198.423,295.211 199.378,294.635 200.635 M275.691 201.088 C 273.651 202.093,272.052 202.985,272.137 203.070 C 272.287 203.220,279.513 199.820,279.929 199.404 C 280.465 198.868,279.079 199.419,275.691 201.088 M292.235 205.835 C 291.660 207.093,291.263 208.196,291.353 208.287 C 291.444 208.377,291.989 207.422,292.565 206.165 C 293.140 204.907,293.537 203.804,293.447 203.713 C 293.356 203.623,292.811 204.578,292.235 205.835 M266.923 204.945 C 264.889 205.803,263.904 206.419,264.633 206.380 C 265.166 206.352,269.875 204.069,269.400 204.069 C 269.180 204.069,268.065 204.464,266.923 204.945 M48.069 207.400 C 48.056 208.280,48.195 209.720,48.377 210.600 L 48.708 212.200 48.731 210.600 C 48.744 209.720,48.605 208.280,48.423 207.400 L 48.092 205.800 48.069 207.400 M259.400 208.000 C 258.520 208.407,258.070 208.741,258.400 208.741 C 258.730 208.741,259.720 208.407,260.600 208.000 C 261.480 207.593,261.930 207.259,261.600 207.259 C 261.270 207.259,260.280 207.593,259.400 208.000 M289.835 211.035 C 289.260 212.293,288.863 213.396,288.953 213.487 C 289.044 213.577,289.589 212.622,290.165 211.365 C 290.740 210.107,291.137 209.004,291.047 208.913 C 290.956 208.823,290.411 209.778,289.835 211.035 M254.000 210.000 C 253.467 210.345,253.467 210.388,254.000 210.388 C 254.330 210.388,254.870 210.213,255.200 210.000 C 255.733 209.655,255.733 209.612,255.200 209.612 C 254.870 209.612,254.330 209.787,254.000 210.000 M251.600 210.800 C 251.067 211.145,251.067 211.188,251.600 211.188 C 251.930 211.188,252.470 211.013,252.800 210.800 C 253.333 210.455,253.333 210.412,252.800 210.412 C 252.470 210.412,251.930 210.587,251.600 210.800 M249.200 211.600 C 248.667 211.945,248.667 211.988,249.200 211.988 C 249.530 211.988,250.070 211.813,250.400 211.600 C 250.933 211.255,250.933 211.212,250.400 211.212 C 250.070 211.212,249.530 211.387,249.200 211.600 M243.400 213.200 L 242.600 213.544 243.400 213.544 C 243.840 213.544,244.560 213.389,245.000 213.200 L 245.800 212.856 245.000 212.856 C 244.560 212.856,243.840 213.011,243.400 213.200 M240.400 214.000 C 239.605 214.514,240.604 214.514,241.800 214.000 L 242.600 213.656 241.800 213.634 C 241.360 213.622,240.730 213.787,240.400 214.000 M287.823 215.406 C 286.960 217.472,287.074 217.706,288.047 215.862 C 288.493 215.016,288.765 214.232,288.652 214.119 C 288.539 214.006,288.166 214.585,287.823 215.406 M236.800 214.800 L 235.800 215.120 236.800 215.132 C 237.350 215.138,238.160 214.989,238.600 214.800 L 239.400 214.456 238.600 214.468 C 238.160 214.474,237.350 214.624,236.800 214.800 M232.000 215.600 C 231.028 215.911,231.033 215.920,232.200 215.920 C 232.860 215.920,233.850 215.776,234.400 215.600 C 235.372 215.289,235.367 215.280,234.200 215.280 C 233.540 215.280,232.550 215.424,232.000 215.600 M229.600 216.337 C 229.600 216.522,230.444 217.377,231.475 218.237 C 233.395 219.837,260.831 243.257,263.004 245.151 C 263.666 245.728,265.376 247.190,266.804 248.400 C 268.232 249.610,269.638 250.825,269.929 251.100 C 270.947 252.063,273.619 249.886,272.631 248.898 C 272.506 248.773,272.202 249.249,271.956 249.956 C 271.701 250.686,271.273 251.189,270.965 251.120 C 270.516 251.021,252.023 235.463,245.615 229.795 C 244.617 228.912,242.630 227.202,241.200 225.995 C 233.032 219.099,230.400 216.754,230.400 216.372 C 230.400 216.168,230.220 216.000,230.000 216.000 C 229.780 216.000,229.600 216.152,229.600 216.337 M285.423 220.606 C 284.560 222.672,284.674 222.906,285.647 221.062 C 286.093 220.216,286.365 219.432,286.252 219.319 C 286.139 219.206,285.766 219.785,285.423 220.606 M283.072 225.819 C 282.132 227.789,282.264 228.124,283.247 226.262 C 283.693 225.416,283.987 224.654,283.901 224.567 C 283.814 224.481,283.441 225.044,283.072 225.819 M280.655 231.055 C 280.276 231.849,280.053 232.586,280.159 232.693 C 280.266 232.799,280.636 232.209,280.982 231.382 C 281.798 229.429,281.549 229.180,280.655 231.055 M278.255 236.255 C 277.876 237.049,277.653 237.786,277.759 237.893 C 277.866 237.999,278.236 237.409,278.582 236.582 C 279.398 234.629,279.149 234.380,278.255 236.255 M276.235 240.635 C 275.660 241.893,275.263 242.996,275.353 243.087 C 275.444 243.177,275.989 242.222,276.565 240.965 C 277.140 239.707,277.537 238.604,277.447 238.513 C 277.356 238.423,276.811 239.378,276.235 240.635 M273.835 245.835 C 273.260 247.093,272.863 248.196,272.953 248.287 C 273.044 248.377,273.589 247.422,274.165 246.165 C 274.740 244.907,275.137 243.804,275.047 243.713 C 274.956 243.623,274.411 244.578,273.835 245.835 " stroke="none" fill="#c6f740" fill-rule="evenodd"></path><path id="path4" d="M357.757 142.900 C 357.767 143.615,357.283 146.450,356.682 149.200 C 356.081 151.950,353.107 165.760,350.073 179.888 C 347.040 194.016,344.441 205.693,344.298 205.835 C 344.156 205.978,340.835 204.736,336.920 203.075 C 333.004 201.415,326.830 198.805,323.200 197.275 C 305.315 189.739,302.000 188.295,302.000 188.039 C 302.000 187.796,305.006 185.832,311.502 181.831 C 319.832 176.700,329.492 169.441,338.465 161.570 C 344.098 156.628,357.801 142.867,357.444 142.510 C 357.333 142.400,356.296 143.365,355.140 144.655 C 348.382 152.191,335.339 164.270,328.200 169.605 C 326.880 170.591,325.710 171.494,325.600 171.610 C 325.490 171.727,323.600 173.099,321.400 174.659 C 317.458 177.455,316.513 178.076,307.000 184.138 C 300.018 188.587,300.233 188.234,303.700 189.561 C 305.075 190.087,307.010 190.872,308.000 191.305 C 308.990 191.739,310.385 192.342,311.100 192.647 C 311.815 192.951,312.985 193.449,313.700 193.753 C 314.415 194.058,315.853 194.688,316.896 195.153 C 317.938 195.619,318.885 196.000,319.000 196.000 C 319.115 196.000,320.017 196.360,321.004 196.800 C 321.992 197.240,323.608 197.960,324.596 198.400 C 325.583 198.840,326.485 199.200,326.600 199.200 C 326.797 199.200,327.571 199.531,332.096 201.553 C 333.138 202.019,334.085 202.400,334.200 202.400 C 334.315 202.400,335.262 202.781,336.304 203.247 C 344.757 207.021,344.547 206.991,345.176 204.500 C 345.813 201.979,346.793 197.515,347.613 193.400 C 347.877 192.080,348.231 190.460,348.400 189.800 C 348.569 189.140,348.923 187.520,349.187 186.200 C 349.795 183.149,350.226 181.116,350.800 178.600 C 351.051 177.500,351.420 175.880,351.621 175.000 C 351.822 174.120,352.281 171.960,352.641 170.200 C 353.002 168.440,353.435 166.370,353.605 165.600 C 353.775 164.830,354.313 162.310,354.800 160.000 C 355.287 157.690,355.827 155.170,356.000 154.400 C 358.147 144.825,358.679 141.600,358.112 141.600 C 357.907 141.600,357.748 142.185,357.757 142.900 M92.314 185.019 C 92.193 185.140,92.240 185.905,92.417 186.719 C 92.594 187.534,92.948 189.550,93.203 191.200 C 93.459 192.850,93.817 195.010,94.000 196.000 C 94.183 196.990,94.538 199.150,94.791 200.800 C 95.379 204.642,95.787 207.149,97.185 215.500 C 97.397 216.765,97.770 219.060,98.015 220.600 C 98.260 222.140,98.620 224.390,98.815 225.600 C 99.010 226.810,99.373 229.060,99.621 230.600 C 99.869 232.140,100.236 234.155,100.436 235.077 C 100.636 236.000,100.800 237.220,100.800 237.790 C 100.800 239.126,101.677 239.441,103.303 238.686 C 104.016 238.355,105.455 237.705,106.500 237.242 C 110.656 235.400,112.288 234.671,114.300 233.755 C 115.455 233.230,117.345 232.370,118.500 231.845 C 119.655 231.319,121.455 230.509,122.500 230.045 C 123.545 229.580,125.210 228.840,126.200 228.400 C 127.190 227.960,128.810 227.240,129.800 226.800 C 130.790 226.360,132.455 225.620,133.500 225.155 C 134.545 224.691,136.345 223.881,137.500 223.355 C 138.655 222.830,140.545 221.970,141.700 221.445 C 142.855 220.919,144.610 220.130,145.600 219.690 C 149.909 217.777,151.109 217.242,152.899 216.436 C 153.943 215.966,155.273 215.400,155.854 215.179 C 156.435 214.958,156.812 214.679,156.692 214.558 C 156.571 214.438,152.181 216.264,146.936 218.617 C 126.415 227.824,109.726 235.315,108.200 236.003 C 103.062 238.321,101.831 238.788,101.587 238.509 C 101.437 238.339,100.736 234.600,100.029 230.200 C 98.453 220.394,93.298 188.690,92.989 186.900 C 92.703 185.251,92.543 185.217,96.906 187.735 C 110.226 195.426,125.979 202.582,146.800 210.402 C 151.970 212.344,156.515 214.057,156.900 214.209 C 157.285 214.361,157.600 214.330,157.600 214.140 C 157.600 213.950,156.835 213.564,155.900 213.283 C 154.463 212.849,149.902 211.169,147.000 210.002 C 146.560 209.825,145.570 209.464,144.800 209.200 C 144.030 208.936,143.040 208.574,142.600 208.397 C 142.160 208.220,139.820 207.308,137.400 206.370 C 134.980 205.432,131.870 204.155,130.490 203.532 C 129.109 202.910,127.900 202.400,127.802 202.400 C 127.704 202.400,126.673 201.970,125.512 201.445 C 124.350 200.919,122.500 200.090,121.400 199.602 C 112.562 195.682,98.241 188.406,96.200 186.800 C 95.740 186.438,92.836 184.800,92.655 184.800 C 92.588 184.800,92.435 184.899,92.314 185.019 " stroke="none" fill="#fcbcb0" fill-rule="evenodd"></path><path id="path5" d="M357.981 141.220 C 357.628 141.443,357.586 141.590,357.872 141.594 C 358.132 141.597,358.407 142.005,358.484 142.500 C 358.611 143.317,358.645 143.298,358.858 142.290 C 359.123 141.036,358.833 140.681,357.981 141.220 M354.181 145.300 L 352.600 147.000 354.300 145.419 C 355.881 143.948,356.184 143.600,355.881 143.600 C 355.816 143.600,355.051 144.365,354.181 145.300 M347.993 151.900 L 343.400 156.600 348.100 152.007 C 352.466 147.740,352.982 147.200,352.693 147.200 C 352.635 147.200,350.520 149.315,347.993 151.900 M341.375 158.100 L 340.200 159.400 341.500 158.225 C 342.215 157.579,342.800 156.994,342.800 156.925 C 342.800 156.616,342.470 156.888,341.375 158.100 " stroke="none" fill="#6cf0f5" fill-rule="evenodd"></path><path id="path6" d="M43.800 143.200 C 44.659 144.080,45.452 144.800,45.562 144.800 C 45.672 144.800,45.059 144.080,44.200 143.200 C 43.341 142.320,42.548 141.600,42.438 141.600 C 42.328 141.600,42.941 142.320,43.800 143.200 M41.309 144.400 C 41.309 145.390,41.387 145.795,41.482 145.300 C 41.578 144.805,41.578 143.995,41.482 143.500 C 41.387 143.005,41.309 143.410,41.309 144.400 M50.400 150.110 C 50.400 150.171,51.795 151.566,53.500 153.210 L 56.600 156.200 53.610 153.100 C 50.833 150.221,50.400 149.817,50.400 150.110 M42.101 152.200 C 42.105 153.080,42.187 153.393,42.283 152.895 C 42.379 152.398,42.375 151.678,42.275 151.295 C 42.175 150.913,42.096 151.320,42.101 152.200 M59.800 159.200 C 60.659 160.080,61.452 160.800,61.562 160.800 C 61.672 160.800,61.059 160.080,60.200 159.200 C 59.341 158.320,58.548 157.600,58.438 157.600 C 58.328 157.600,58.941 158.320,59.800 159.200 M42.901 159.800 C 42.905 160.680,42.987 160.993,43.083 160.495 C 43.179 159.998,43.175 159.278,43.075 158.895 C 42.975 158.513,42.896 158.920,42.901 159.800 M43.701 167.400 C 43.705 168.280,43.787 168.593,43.883 168.095 C 43.979 167.598,43.975 166.878,43.875 166.495 C 43.775 166.113,43.696 166.520,43.701 167.400 M44.501 175.000 C 44.505 175.880,44.587 176.193,44.683 175.695 C 44.779 175.198,44.775 174.478,44.675 174.095 C 44.575 173.713,44.496 174.120,44.501 175.000 M45.309 182.800 C 45.309 183.790,45.387 184.195,45.482 183.700 C 45.578 183.205,45.578 182.395,45.482 181.900 C 45.387 181.405,45.309 181.810,45.309 182.800 M299.800 188.426 C 299.360 188.601,299.225 188.756,299.500 188.772 C 299.775 188.787,300.005 189.115,300.012 189.500 C 300.024 190.157,300.050 190.157,300.440 189.485 C 301.018 188.492,300.749 188.048,299.800 188.426 M46.109 190.400 C 46.109 191.390,46.187 191.795,46.282 191.300 C 46.378 190.805,46.378 189.995,46.282 189.500 C 46.187 189.005,46.109 189.410,46.109 190.400 M46.901 198.200 C 46.905 199.080,46.987 199.393,47.083 198.895 C 47.179 198.398,47.175 197.678,47.075 197.295 C 46.975 196.913,46.896 197.320,46.901 198.200 M47.701 205.800 C 47.705 206.680,47.787 206.993,47.883 206.495 C 47.979 205.998,47.975 205.278,47.875 204.895 C 47.775 204.513,47.696 204.920,47.701 205.800 M48.501 213.400 C 48.505 214.280,48.587 214.593,48.683 214.095 C 48.779 213.598,48.775 212.878,48.675 212.495 C 48.575 212.113,48.496 212.520,48.501 213.400 " stroke="none" fill="#fcecd9" fill-rule="evenodd"></path><path id="path7" d="M42.000 140.925 C 42.000 140.994,42.585 141.579,43.300 142.225 L 44.600 143.400 43.425 142.100 C 42.330 140.888,42.000 140.616,42.000 140.925 M51.800 151.200 C 55.315 154.720,58.281 157.600,58.391 157.600 C 58.501 157.600,55.715 154.720,52.200 151.200 C 48.685 147.680,45.719 144.800,45.609 144.800 C 45.499 144.800,48.285 147.680,51.800 151.200 M41.293 147.200 C 41.293 147.970,41.375 148.285,41.476 147.900 C 41.576 147.515,41.576 146.885,41.476 146.500 C 41.375 146.115,41.293 146.430,41.293 147.200 M42.101 155.000 C 42.105 155.880,42.187 156.193,42.283 155.695 C 42.379 155.198,42.375 154.478,42.275 154.095 C 42.175 153.713,42.096 154.120,42.101 155.000 M60.000 158.925 C 60.000 158.994,60.585 159.579,61.300 160.225 L 62.600 161.400 61.425 160.100 C 60.330 158.888,60.000 158.616,60.000 158.925 M42.901 162.600 C 42.905 163.480,42.987 163.793,43.083 163.295 C 43.179 162.798,43.175 162.078,43.075 161.695 C 42.975 161.313,42.896 161.720,42.901 162.600 M43.701 170.200 C 43.705 171.080,43.787 171.393,43.883 170.895 C 43.979 170.398,43.975 169.678,43.875 169.295 C 43.775 168.913,43.696 169.320,43.701 170.200 M44.501 177.800 C 44.505 178.680,44.587 178.993,44.683 178.495 C 44.779 177.998,44.775 177.278,44.675 176.895 C 44.575 176.513,44.496 176.920,44.501 177.800 M45.293 185.600 C 45.293 186.370,45.375 186.685,45.476 186.300 C 45.576 185.915,45.576 185.285,45.476 184.900 C 45.375 184.515,45.293 184.830,45.293 185.600 M46.101 193.400 C 46.105 194.280,46.187 194.593,46.283 194.095 C 46.379 193.598,46.375 192.878,46.275 192.495 C 46.175 192.113,46.096 192.520,46.101 193.400 M46.901 201.000 C 46.905 201.880,46.987 202.193,47.083 201.695 C 47.179 201.198,47.175 200.478,47.075 200.095 C 46.975 199.713,46.896 200.120,46.901 201.000 M47.701 208.600 C 47.705 209.480,47.787 209.793,47.883 209.295 C 47.979 208.798,47.975 208.078,47.875 207.695 C 47.775 207.313,47.696 207.720,47.701 208.600 M157.851 214.211 C 157.718 214.558,157.769 214.742,157.965 214.621 C 158.161 214.500,158.675 214.986,159.108 215.701 C 159.540 216.415,161.379 219.430,163.195 222.400 C 165.011 225.370,166.811 228.340,167.195 229.000 C 167.579 229.660,168.842 231.730,170.001 233.600 C 171.160 235.470,173.142 238.710,174.405 240.800 C 175.668 242.890,178.187 247.030,180.003 250.000 C 181.819 252.970,183.787 256.210,184.378 257.200 C 186.193 260.243,185.156 261.086,207.800 238.169 C 227.097 218.640,229.544 215.999,228.047 216.318 C 227.324 216.472,222.672 217.103,218.400 217.628 C 202.939 219.525,184.264 219.687,175.600 217.999 C 174.610 217.806,172.540 217.429,171.000 217.161 C 168.410 216.711,165.904 216.121,162.400 215.138 C 161.630 214.921,160.550 214.643,160.000 214.518 C 159.450 214.394,158.796 214.132,158.547 213.936 C 158.257 213.708,158.006 213.808,157.851 214.211 M162.971 215.797 C 177.014 220.159,198.376 220.826,222.000 217.641 C 224.970 217.240,227.482 216.984,227.581 217.071 C 227.898 217.348,186.783 258.803,186.202 258.792 C 185.981 258.788,185.096 257.573,184.235 256.092 C 183.375 254.612,180.741 250.250,178.382 246.400 C 174.620 240.259,159.792 215.904,159.327 215.100 C 159.060 214.640,159.544 214.733,162.971 215.797 M229.374 216.042 C 229.223 216.286,229.704 217.051,230.441 217.742 L 231.782 219.000 230.647 217.733 C 230.023 217.035,229.633 216.270,229.780 216.033 C 229.927 215.795,229.957 215.600,229.847 215.600 C 229.737 215.600,229.524 215.799,229.374 216.042 " stroke="none" fill="#f4f4ec" fill-rule="evenodd"></path><path id="path8" d="M356.175 142.900 L 355.000 144.200 356.300 143.025 C 357.015 142.379,357.600 141.794,357.600 141.725 C 357.600 141.416,357.270 141.688,356.175 142.900 M347.594 151.900 L 342.600 157.000 347.700 152.006 C 352.437 147.367,352.981 146.800,352.694 146.800 C 352.636 146.800,350.341 149.095,347.594 151.900 M339.178 159.900 L 337.800 161.400 339.300 160.022 C 340.696 158.738,340.984 158.400,340.678 158.400 C 340.612 158.400,339.937 159.075,339.178 159.900 " stroke="none" fill="#e6e645" fill-rule="evenodd"></path></g></svg>