<?xml version="1.0" standalone="no"?>
<!DOCTYPE svg PUBLIC "-//W3C//DTD SVG 20010904//EN"
 "http://www.w3.org/TR/2001/REC-SVG-20010904/DTD/svg10.dtd">
<svg version="1.0" xmlns="http://www.w3.org/2000/svg"
 width="500.000000pt" height="500.000000pt" viewBox="0 0 500.000000 500.000000"
 preserveAspectRatio="xMidYMid meet">

<g transform="translate(0.000000,500.000000) scale(0.100000,-0.100000)"
fill="#000000" stroke="none">
<path d="M2632 3475 c-18 -8 -46 -24 -62 -35 -26 -19 -27 -22 -17 -56 6 -20
19 -41 28 -47 13 -8 14 -17 7 -46 -9 -34 -17 -40 -141 -103 -169 -86 -278
-172 -345 -272 -50 -75 -92 -178 -92 -227 0 -34 33 -76 73 -93 29 -12 36 -24
69 -120 l37 -106 -47 -75 c-45 -70 -49 -74 -68 -61 -42 30 -135 49 -211 43
-245 -18 -415 -258 -347 -488 24 -81 48 -122 103 -176 61 -60 123 -92 207
-106 149 -26 301 39 391 167 l20 29 47 -22 c25 -13 44 -27 40 -32 -6 -10 -5
-10 71 -15 93 -5 110 15 50 63 l-34 27 29 13 c59 24 81 92 56 168 -6 17 28 60
185 230 106 116 196 211 200 213 4 2 14 -17 22 -42 l15 -45 -41 -32 c-63 -49
-97 -93 -125 -162 -105 -261 80 -540 358 -539 337 1 514 404 285 650 -98 106
-240 151 -373 118 -36 -9 -69 -13 -73 -9 -4 5 -14 35 -22 68 -9 33 -25 90 -36
127 l-20 68 22 4 c90 19 91 19 129 -28 l37 -44 -22 -20 c-12 -12 -39 -28 -60
-37 -35 -14 -52 -45 -24 -45 27 1 94 40 126 74 19 20 40 36 47 36 6 0 24 10
39 22 23 18 26 27 22 54 -3 19 -1 36 4 40 16 9 -1 24 -28 24 -48 0 -107 45
-154 117 -24 37 -79 105 -122 151 -79 83 -123 157 -129 217 -3 28 -1 30 33 33
31 3 38 7 42 31 3 16 13 36 22 45 16 15 16 19 1 41 -9 13 -16 36 -16 50 0 20
5 25 26 25 20 0 25 4 20 16 -3 9 -6 20 -6 24 0 18 -66 83 -97 96 -42 18 -109
17 -151 -1z m40 -605 c22 -16 49 -30 59 -30 10 0 32 -20 50 -47 17 -27 64 -78
102 -115 39 -37 69 -70 65 -73 -3 -3 -31 -10 -63 -15 -32 -5 -59 -11 -61 -13
-2 -2 4 -22 13 -45 9 -23 14 -44 11 -47 -5 -6 -188 -33 -188 -28 0 2 7 15 17
29 23 36 23 107 -1 133 -28 31 -112 75 -191 100 -38 13 -77 25 -85 27 -16 6
55 55 145 101 28 14 54 32 58 39 12 20 22 18 69 -16z m-167 -367 c-14 -12 -36
-35 -49 -50 l-23 -27 -27 46 c-14 24 -26 47 -26 49 0 3 34 5 76 5 l75 -1 -26
-22z m-274 -76 c18 -35 19 -38 3 -35 -11 2 -24 24 -35 58 -15 45 -16 51 -3 35
9 -11 25 -37 35 -58z m639 -10 c0 -16 -45 -72 -142 -178 -139 -150 -144 -154
-181 -152 -48 2 -63 15 -92 74 -22 46 -22 49 -5 64 10 9 21 27 24 40 3 12 37
50 75 84 68 60 70 61 157 75 49 8 106 14 127 15 32 1 37 -2 37 -22z m-582 -84
c28 -31 30 -53 10 -103 l-15 -35 -23 70 c-13 39 -25 76 -28 83 -8 22 30 12 56
-15z m-46 -204 l-17 -28 -48 54 -48 54 38 57 37 56 28 -83 c27 -80 27 -83 10
-110z m843 -129 l-6 -24 -20 31 c-26 41 -89 193 -89 216 0 34 19 16 35 -34 9
-28 19 -49 21 -46 2 2 -3 25 -12 51 -9 26 -14 50 -10 53 3 3 23 9 43 12 l38 6
3 -120 c1 -66 0 -131 -3 -145z m97 260 c17 0 19 -5 14 -32 -6 -33 -6 -33 5 -5
9 22 15 26 32 21 55 -17 162 -105 145 -118 -75 -59 -222 -165 -225 -162 -3 2
24 44 59 93 36 48 73 102 83 118 35 56 -2 10 -80 -98 -48 -67 -74 -112 -68
-118 6 -6 52 23 123 76 62 47 117 85 121 85 4 0 16 -19 28 -42 l21 -43 -37
-18 c-37 -17 -33 -18 14 -3 25 8 29 4 38 -51 l7 -43 -149 0 c-129 0 -179 6
-173 21 1 2 -3 15 -9 29 -8 22 -10 23 -12 5 -5 -57 -17 55 -18 169 l-1 129 31
-7 c17 -3 40 -6 51 -6z m-1280 -150 c9 -69 15 -131 13 -137 -7 -20 -36 -15
-42 7 -5 17 -8 18 -21 8 -9 -7 -13 -8 -9 -2 3 6 -23 55 -58 110 -36 54 -65 96
-65 92 0 -4 27 -49 60 -100 32 -51 57 -94 55 -96 -7 -7 -185 142 -182 152 4
13 106 76 123 76 7 0 19 -19 28 -42 15 -39 15 -24 0 29 -6 23 11 32 56 30 24
-2 25 -6 42 -127z m57 121 c12 -8 11 -27 -4 -125 -10 -64 -21 -113 -24 -111
-3 3 -12 59 -21 125 l-16 120 25 0 c14 0 32 -4 40 -9z m56 -13 c14 -6 25 -15
25 -20 0 -5 -14 -43 -32 -86 -32 -77 -58 -125 -58 -107 0 16 34 225 36 225 2
0 15 -5 29 -12z m939 -60 c9 -29 20 -60 23 -68 3 -8 -19 9 -48 37 -51 51 -53
53 -34 67 32 24 40 19 59 -36z m-909 -17 c-15 -22 -29 -41 -30 -41 -2 0 6 23
18 50 12 29 25 46 30 41 5 -5 -3 -26 -18 -50z m126 -43 l19 -27 -79 -60 c-60
-46 -88 -61 -112 -61 l-32 0 21 23 c12 13 19 27 15 31 -5 4 -3 6 2 4 6 -1 28
17 50 42 67 77 73 89 12 26 l-58 -61 48 77 48 77 23 -22 c13 -12 33 -34 43
-49z m769 5 c62 -69 105 -133 78 -117 -18 10 -171 116 -182 125 -10 9 19 59
33 59 5 0 37 -30 71 -67z m-1196 -54 c55 -45 100 -85 99 -90 -2 -5 2 -9 8 -9
5 0 7 -4 4 -10 -3 -5 -23 -11 -43 -11 l-37 -2 35 -7 c21 -4 27 -8 15 -9 l-20
-2 20 -9 c19 -9 19 -9 -2 -16 -13 -3 -21 -10 -18 -14 4 -7 -196 -160 -209
-160 -6 0 -36 55 -36 68 0 4 12 13 28 19 27 11 27 11 -5 6 -28 -5 -33 -3 -33
15 0 11 -3 27 -6 36 -4 12 0 16 17 17 24 2 24 2 2 6 -18 3 -23 11 -23 33 0 16
7 35 15 43 10 10 11 17 4 19 -13 4 14 78 29 78 5 0 37 -11 71 -26 35 -14 65
-23 67 -21 2 2 -27 16 -66 31 -38 15 -70 30 -70 32 0 7 43 64 48 64 2 0 50
-37 106 -81z m1310 -106 c3 -8 -7 -8 -36 3 -23 8 -43 12 -46 10 -2 -3 9 -9 24
-13 29 -8 29 -8 -11 -14 -37 -6 -36 -6 18 -8 31 0 57 -4 57 -9 0 -12 -279
-101 -285 -92 -21 35 -12 197 11 194 5 -1 20 -4 34 -8 18 -4 16 -2 -7 9 -39
18 -39 20 -13 63 l20 33 115 -78 c62 -43 116 -83 119 -90z m-846 92 c16 -34
16 -32 -15 -50 -26 -15 -16 -14 22 1 11 4 15 0 15 -15 0 -18 -6 -21 -47 -21
-37 0 -45 3 -33 11 12 9 11 9 -5 3 -11 -4 -38 -9 -60 -12 l-40 -4 70 56 c39
30 73 55 76 56 3 0 11 -11 17 -25z m180 -38 c2 -27 -1 -37 -11 -37 -15 0 -27
28 -27 63 0 12 6 17 18 15 12 -2 18 -14 20 -41z m111 -7 c-26 -34 -34 -32 -25
5 4 16 13 25 26 25 20 0 20 -1 -1 -30z m-453 -67 c-9 -10 -66 -13 -66 -4 0 4
16 8 36 9 20 1 34 -2 30 -5z m109 -3 l-80 -6 78 -2 c43 -1 77 -6 77 -12 0 -11
-65 -13 -134 -4 -37 6 -44 9 -35 20 8 10 34 13 93 12 l81 -2 -80 -6z m1299
-52 c-4 -24 -10 -47 -14 -52 -5 -4 -43 3 -86 18 -43 14 -79 24 -82 22 -2 -2
35 -17 81 -32 l86 -28 -20 -37 c-10 -21 -22 -40 -27 -43 -10 -6 -228 159 -224
169 2 4 -2 12 -10 16 -7 5 55 9 145 9 l157 0 -6 -42z m-398 -13 c-12 -16 -51
-70 -86 -120 -35 -49 -65 -92 -67 -95 -2 -2 -20 12 -39 31 l-35 36 110 82 c61
46 111 85 111 88 0 5 -66 -42 -162 -114 -31 -24 -59 -43 -62 -43 -3 0 -15 18
-26 40 -16 31 -18 42 -8 45 87 33 248 82 265 81 l22 -1 -23 -30z m237 -85 c48
-35 87 -67 87 -70 0 -3 -15 -20 -33 -38 l-33 -32 -84 119 c-52 73 -88 115 -92
108 -4 -7 -6 -2 -5 10 1 25 -20 37 160 -97z m-193 -46 l0 -157 -45 6 c-26 2
-48 7 -51 9 -2 3 3 24 11 48 8 23 15 48 14 54 0 6 -8 -11 -18 -38 -9 -28 -22
-51 -27 -53 -5 -2 -24 6 -42 17 -22 14 -30 24 -25 33 42 70 148 205 153 196 5
-6 10 0 14 15 3 14 9 26 11 26 3 0 5 -70 5 -156z m106 -141 c-3 -3 -26 -9 -51
-13 l-45 -7 1 161 1 161 50 -148 c27 -82 47 -151 44 -154z m-1444 153 c-53
-56 -101 -101 -106 -101 -5 0 -19 14 -33 31 l-24 32 118 86 c107 78 119 85
130 69 11 -15 1 -30 -85 -117z m406 118 l33 -5 -21 -29 c-11 -15 -20 -38 -20
-49 l0 -21 -40 20 c-67 34 -59 21 10 -16 l65 -35 -60 6 c-65 7 -126 39 -146
76 -10 19 -9 21 5 16 42 -17 48 -16 14 2 -25 15 -35 26 -31 36 4 13 19 15 82
10 42 -3 91 -8 109 -11z m1056 -112 c37 -52 70 -100 72 -107 5 -13 -41 -45
-65 -45 -8 0 -91 231 -91 255 0 13 8 3 84 -103z m-1254 78 c0 -5 -1 -12 -2
-14 -2 -2 4 -12 13 -22 30 -35 31 -44 7 -44 -17 0 -27 8 -35 31 -12 31 -8 59
8 59 5 0 9 -4 9 -10z m-156 -106 c-25 -44 -53 -92 -61 -109 -28 -54 1 -16 50
68 l48 82 -6 -60 c-16 -165 -14 -162 -100 -121 -87 42 -88 34 16 146 55 59 95
95 97 87 2 -8 -18 -50 -44 -93z m132 21 c16 -46 30 -83 32 -80 2 2 0 18 -6 34
-11 30 -10 31 22 31 30 0 35 -5 61 -60 28 -59 28 -60 9 -74 -26 -20 -54 -26
-54 -13 0 6 -6 3 -12 -6 -7 -9 -27 -20 -44 -23 -39 -8 -40 -5 -49 136 -4 58
-9 113 -11 123 -4 11 0 17 10 17 10 0 24 -28 42 -85z m-52 -47 c4 -62 9 -121
12 -130 4 -15 -1 -18 -30 -18 -41 0 -40 -6 -26 110 22 189 34 200 44 38z m151
52 c3 -5 2 -10 -4 -10 -5 0 -13 5 -16 10 -3 6 -2 10 4 10 5 0 13 -4 16 -10z
m62 -45 c23 -14 43 -29 43 -32 0 -10 -42 -53 -52 -53 -7 0 -58 92 -58 105 0
11 25 4 67 -20z m73 8 c0 -5 -4 -14 -9 -22 -7 -11 -13 -10 -35 4 -14 10 -26
19 -26 21 0 2 16 4 35 4 19 0 35 -3 35 -7z"/>
<path d="M3036 2110 c4 -14 13 -38 20 -55 11 -24 13 -25 8 -5 -4 14 -13 39
-20 55 -11 24 -13 25 -8 5z"/>
<path d="M3171 2149 c-7 -22 -11 -43 -8 -45 2 -2 9 14 16 37 7 22 11 43 8 45
-2 2 -9 -14 -16 -37z"/>
<path d="M3141 2049 c-7 -22 -11 -43 -8 -45 2 -2 9 14 16 37 7 22 11 43 8 45
-2 2 -9 -14 -16 -37z"/>
<path d="M3190 1945 c-19 -7 -28 -14 -20 -14 8 0 29 6 45 14 39 17 21 18 -25
0z"/>
<path d="M1822 2120 c0 -8 8 -37 18 -65 10 -27 18 -43 18 -35 0 8 -8 38 -18
65 -10 28 -18 43 -18 35z"/>
<path d="M1750 1990 c8 -5 20 -10 25 -10 6 0 3 5 -5 10 -8 5 -19 10 -25 10 -5
0 -3 -5 5 -10z"/>
<path d="M1800 1970 c8 -5 20 -10 25 -10 6 0 3 5 -5 10 -8 5 -19 10 -25 10 -5
0 -3 -5 5 -10z"/>
<path d="M1593 1953 c9 -2 25 -2 35 0 9 3 1 5 -18 5 -19 0 -27 -2 -17 -5z"/>
<path d="M1663 1943 c9 -2 25 -2 35 0 9 3 1 5 -18 5 -19 0 -27 -2 -17 -5z"/>
<path d="M1733 1933 c9 -2 23 -2 30 0 6 3 -1 5 -18 5 -16 0 -22 -2 -12 -5z"/>
<path d="M1723 1893 c15 -2 37 -2 50 0 12 2 0 4 -28 4 -27 0 -38 -2 -22 -4z"/>
<path d="M1613 1883 c15 -2 37 -2 50 0 12 2 0 4 -28 4 -27 0 -38 -2 -22 -4z"/>
<path d="M2818 1913 c23 -2 59 -2 80 0 20 2 1 4 -43 4 -44 0 -61 -2 -37 -4z"/>
<path d="M3046 1764 c-10 -31 -16 -58 -14 -60 3 -2 12 21 22 52 10 31 16 58
14 60 -3 2 -12 -21 -22 -52z"/>
</g>
</svg>
