<?xml version="1.0" standalone="no"?>
<!DOCTYPE svg PUBLIC "-//W3C//DTD SVG 20010904//EN"
 "http://www.w3.org/TR/2001/REC-SVG-20010904/DTD/svg10.dtd">
<svg version="1.0" xmlns="http://www.w3.org/2000/svg"
 width="500.000000pt" height="500.000000pt" viewBox="0 0 500.000000 500.000000"
 preserveAspectRatio="xMidYMid meet">

<g transform="translate(0.000000,500.000000) scale(0.100000,-0.100000)"
fill="#000000" stroke="none">
<path d="M2328 4966 c-24 -16 -40 -21 -49 -15 -8 5 -25 9 -39 8 l-25 0 24 -13
24 -14 -22 -7 c-53 -16 -77 -121 -51 -217 8 -29 14 -35 30 -31 12 3 20 14 20
25 0 11 16 46 36 79 31 49 39 57 55 49 10 -6 55 -10 100 -10 104 0 162 -24
180 -75 14 -38 32 -37 49 5 6 15 22 38 36 51 26 25 34 79 10 79 -7 0 -61 25
-120 55 -93 48 -113 55 -165 55 -45 0 -66 -5 -93 -24z"/>
<path d="M1365 4956 c-74 -19 -114 -43 -121 -72 -4 -15 -3 -65 1 -113 5 -47 9
-113 10 -147 1 -43 8 -71 23 -96 18 -29 22 -51 22 -121 0 -81 -2 -88 -29 -119
-25 -29 -44 -37 -125 -57 -94 -22 -95 -23 -90 -50 5 -22 1 -31 -20 -44 -14 -9
-28 -17 -30 -17 -3 0 -17 22 -31 49 -24 49 -45 72 -45 51 0 -15 41 -94 52
-101 13 -8 -8 -22 -21 -15 -4 3 -11 18 -14 33 -7 33 -33 71 -42 61 -3 -3 3
-24 14 -47 14 -27 17 -39 8 -35 -18 7 -75 -117 -131 -284 l-45 -132 27 -15
c22 -13 23 -15 5 -10 -19 5 -23 0 -33 -36 -44 -162 -47 -243 -28 -690 l12
-285 -27 -73 c-15 -39 -30 -96 -33 -125 -6 -49 -4 -55 16 -66 12 -7 37 -27 54
-46 17 -19 37 -34 43 -34 8 0 13 -13 13 -30 0 -19 5 -30 14 -30 13 0 27 56 41
169 4 32 10 48 15 41 4 -7 5 -29 3 -50 -7 -51 13 -61 32 -16 22 51 19 122 -7
175 -33 67 -33 136 -3 306 29 166 57 296 50 230 -2 -22 -7 -95 -11 -161 l-7
-122 28 -18 c38 -25 170 -62 310 -86 195 -33 284 -22 478 63 l78 34 -5 50
c-11 105 -19 805 -9 805 5 0 38 -28 73 -61 l63 -62 -6 -91 c-4 -50 -18 -161
-32 -246 -30 -179 -43 -343 -28 -362 7 -9 4 -36 -10 -87 l-20 -74 -19 22 c-10
13 -18 29 -18 36 0 7 -7 18 -15 25 -12 10 -15 9 -15 -4 0 -21 36 -93 49 -98 5
-1 -13 -91 -40 -198 -57 -227 -113 -489 -135 -633 -35 -229 -12 -529 87 -1163
16 -105 28 -201 27 -214 -2 -20 6 -29 47 -52 56 -31 108 -35 159 -14 l34 14
11 -43 c6 -24 11 -66 11 -92 0 -44 -3 -50 -27 -59 -27 -10 -26 -11 36 -32 83
-28 111 -29 111 -2 0 11 18 38 40 59 l40 39 -52 32 c-29 18 -70 44 -90 57 -21
13 -48 40 -61 61 l-24 37 8 245 c14 445 14 781 0 828 -12 42 -11 47 27 120 43
84 67 150 136 373 25 81 54 157 65 170 l19 24 6 -35 c3 -19 24 -154 46 -300
22 -146 49 -314 60 -375 34 -196 87 -734 95 -965 5 -122 7 -137 26 -152 48
-40 182 -6 193 49 11 53 55 398 70 548 28 279 30 344 12 436 -16 78 -16 98 -2
249 41 449 58 803 45 978 -5 69 -4 130 3 172 8 49 8 115 -2 265 -9 154 -10
230 -1 330 6 72 14 159 17 195 3 36 10 90 15 121 l11 55 81 42 c45 23 87 42
94 42 23 0 25 22 8 68 -39 105 -121 169 -285 223 -84 27 -104 38 -116 60 -14
28 -64 69 -83 69 -8 0 -6 -13 4 -37 15 -35 14 -39 -2 -62 -10 -13 -43 -38 -72
-54 l-53 -30 -35 18 c-50 27 -118 104 -104 118 15 15 14 47 -1 47 -6 0 -31 -9
-55 -21 -48 -23 -83 -65 -83 -101 0 -15 -9 -27 -26 -35 -35 -16 -39 -12 -59
47 -9 28 -21 50 -26 50 -12 0 -4 -30 21 -82 13 -29 14 -38 5 -38 -8 0 -21 23
-30 51 -10 31 -21 47 -26 42 -6 -6 -3 -25 6 -49 14 -35 14 -37 0 -20 -8 11
-15 23 -15 28 0 15 -22 8 -118 -34 -89 -39 -95 -40 -105 -23 -5 11 -28 38 -50
62 -31 34 -54 47 -111 65 -39 12 -77 26 -83 31 -24 18 -14 51 20 68 42 21 72
95 88 217 6 51 15 92 19 92 13 0 33 88 34 150 1 45 -4 65 -20 86 -42 57 -67
68 -167 71 -52 1 -114 -3 -142 -11z m-404 -1598 c-9 -31 -9 -30 -10 24 -1 31
2 65 7 75 11 29 15 -59 3 -99z"/>
<path d="M2333 4728 c-45 -12 -57 -33 -13 -25 18 4 45 7 61 7 16 0 29 4 29 9
0 13 -41 18 -77 9z"/>
<path d="M2530 4718 c14 -5 33 -14 43 -20 26 -13 35 -1 11 17 -10 8 -32 14
-49 14 l-30 0 25 -11z"/>
<path d="M2465 4687 c-4 -10 -1 -45 6 -78 11 -51 15 -58 26 -44 9 13 9 24 1
44 -6 14 -14 42 -18 61 -5 28 -9 31 -15 17z"/>
<path d="M2302 4668 c-8 -10 4 -13 54 -13 54 0 62 2 47 13 -9 6 -33 12 -54 12
-20 0 -41 -6 -47 -12z"/>
<path d="M2523 4673 c-12 -2 -24 -11 -27 -20 -5 -12 -1 -14 16 -9 13 3 39 6
58 6 20 0 30 4 25 9 -14 12 -46 19 -72 14z"/>
<path d="M2212 4623 c2 -10 11 -19 21 -21 12 -2 15 1 11 12 -8 22 -36 30 -32
9z"/>
<path d="M2612 4618 c-7 -7 -12 -16 -12 -20 0 -12 28 -10 36 3 10 17 -10 31
-24 17z"/>
<path d="M3276 4605 c-15 -8 -45 -15 -65 -15 -68 0 -102 -51 -100 -153 l1 -62
12 44 c8 32 20 50 41 62 17 10 36 23 42 29 10 8 19 -3 39 -42 14 -29 36 -67
49 -83 l23 -31 -37 4 c-34 3 -35 2 -17 -12 17 -14 18 -16 3 -16 -20 0 -20 -2
-5 -35 13 -28 26 -32 34 -10 4 8 12 15 19 15 22 0 36 25 22 40 -14 14 39 -16
65 -38 12 -10 28 -12 49 -8 27 5 30 4 19 -9 -8 -10 -9 -15 -2 -15 6 0 15 7 20
17 13 22 42 10 42 -17 0 -33 -17 -57 -48 -68 -28 -9 -29 -14 -36 -85 -11 -122
9 -150 94 -135 110 19 190 78 177 130 -4 14 -22 44 -41 68 -38 48 -50 78 -90
211 -32 108 -76 175 -135 206 -52 27 -131 31 -175 8z"/>
<path d="M2390 4501 c0 -18 50 -49 69 -44 22 6 57 40 49 48 -3 3 -16 -4 -31
-15 -26 -21 -52 -19 -61 6 -6 16 -26 19 -26 5z"/>
<path d="M2312 4388 c9 -26 71 -58 113 -58 51 0 101 16 109 36 3 8 4 14 3 14
-1 0 -20 -7 -42 -15 -59 -21 -98 -18 -139 10 -42 28 -49 30 -44 13z"/>
<path d="M3117 4363 c-8 -17 -6 -62 4 -68 14 -9 41 15 35 31 -3 7 0 15 7 18 9
3 8 8 -3 15 -18 13 -37 14 -43 4z"/>
<path d="M3162 4297 c-15 -34 -19 -54 -12 -61 12 -12 11 -13 33 48 24 67 8 77
-21 13z"/>
<path d="M2080 4255 c0 -25 28 -85 39 -85 15 0 14 13 -5 60 -16 40 -34 53 -34
25z"/>
<path d="M3463 4259 c-34 -12 -29 -33 4 -24 34 8 39 13 27 24 -5 5 -19 5 -31
0z"/>
<path d="M997 4195 c15 -46 28 -62 37 -47 7 11 -31 92 -43 92 -6 0 -3 -19 6
-45z"/>
<path d="M3192 4192 c-29 -9 -25 -27 6 -27 28 1 28 -10 0 -29 -22 -15 -22 -16
-2 -16 28 0 44 19 44 52 0 29 -6 31 -48 20z"/>
<path d="M3375 4127 c-20 -31 -42 -47 -100 -69 -28 -11 -29 -12 -7 -16 37 -6
108 34 126 72 18 38 19 46 9 46 -5 -1 -17 -15 -28 -33z"/>
<path d="M3102 4117 c-25 -71 -9 -95 82 -122 39 -12 45 -12 50 2 14 35 5 49
-36 63 -31 11 -48 25 -63 52 l-21 38 -12 -33z"/>
<path d="M3649 3871 c-25 -59 -6 -74 20 -16 25 56 25 55 9 55 -7 0 -20 -18
-29 -39z"/>
<path d="M3703 3860 c-23 -39 -31 -76 -14 -66 8 5 51 90 51 101 0 16 -18 0
-37 -35z"/>
<path d="M3740 3855 c0 -8 -5 -24 -12 -35 -7 -10 -9 -22 -5 -26 9 -10 14 -5
32 39 14 33 14 37 0 37 -8 0 -15 -7 -15 -15z"/>
<path d="M2962 3687 c-7 -16 -12 -37 -12 -47 0 -11 -8 -35 -17 -55 -18 -38
-12 -55 11 -36 17 14 39 110 33 143 -3 22 -4 22 -15 -5z"/>
<path d="M2880 3618 c0 -18 18 -34 28 -24 3 4 -2 14 -11 23 -16 16 -17 16 -17
1z"/>
<path d="M3615 3549 c48 -84 85 -128 85 -101 0 14 -65 106 -79 110 -9 3 -11 0
-6 -9z"/>
<path d="M3550 3319 c-19 -16 -52 -34 -72 -40 -50 -13 -58 -29 -15 -29 36 0
113 47 124 76 9 25 -1 23 -37 -7z"/>
<path d="M3085 3310 c-7 -11 -5 -12 35 -16 14 -1 39 -6 55 -9 l30 -6 -24 20
c-24 22 -85 29 -96 11z"/>
<path d="M3890 3226 c0 -11 40 -26 71 -26 15 0 10 28 -7 34 -28 11 -64 6 -64
-8z"/>
<path d="M3010 3051 c0 -17 12 -41 21 -41 5 0 9 11 9 25 0 16 -6 25 -15 25 -8
0 -15 -4 -15 -9z"/>
<path d="M3110 3024 c0 -3 5 -14 10 -25 10 -17 7 -19 -25 -19 -20 0 -52 7 -72
15 -19 8 -37 15 -38 15 -9 0 -66 -157 -85 -230 -60 -234 -86 -678 -61 -1015 6
-82 15 -208 20 -280 6 -71 17 -339 26 -595 l16 -465 25 -22 c14 -13 22 -23 18
-23 -4 0 -18 10 -31 22 -19 17 -23 18 -23 6 0 -9 -23 -41 -50 -71 -40 -44 -67
-62 -127 -87 -104 -43 -112 -49 -125 -92 -13 -43 -4 -59 44 -84 37 -19 140
-20 194 -1 22 8 74 36 114 61 52 32 85 46 110 46 59 0 64 8 57 101 -6 102 -12
117 -40 114 -12 -1 -14 0 -5 2 9 2 21 10 26 16 14 17 86 325 119 502 35 192
39 432 9 561 l-18 80 30 95 c17 52 40 146 52 209 35 191 33 186 54 105 10 -39
70 -209 133 -380 172 -464 210 -616 257 -1012 25 -210 30 -222 113 -234 l48
-6 -40 -2 c-23 0 -51 6 -64 15 -22 16 -24 15 -79 -39 -41 -39 -82 -67 -143
-95 -69 -32 -88 -45 -98 -70 -31 -75 27 -121 154 -122 76 0 131 21 210 80 23
17 64 34 97 41 54 11 56 13 60 46 5 44 -9 164 -20 175 -5 5 -6 28 -1 51 16 89
31 449 26 617 -8 253 -53 433 -137 556 l-34 49 -2 310 c-2 342 -9 429 -56 618
-27 112 -35 130 -57 142 -30 15 -84 70 -100 102 -16 31 -14 70 5 98 9 14 13
33 9 45 -5 17 -10 18 -27 9 -24 -13 -160 -24 -184 -15 -16 6 -16 7 1 25 9 11
15 28 13 38 -3 14 -9 10 -28 -19 l-25 -38 -73 0 c-61 0 -78 4 -111 26 -22 14
-42 32 -45 40 -5 13 -26 20 -26 8z m-92 -2641 c-10 -2 -26 -2 -35 0 -10 3 -2
5 17 5 19 0 27 -2 18 -5z m908 -28 c-11 -8 -25 -15 -30 -15 -6 1 0 7 14 15 32
19 40 18 16 0z"/>
<path d="M3710 2904 c0 -16 23 -44 35 -44 18 0 19 10 1 33 -12 16 -36 24 -36
11z"/>
<path d="M3710 2735 c0 -8 5 -15 10 -15 6 0 10 7 10 15 0 8 -4 15 -10 15 -5 0
-10 -7 -10 -15z"/>
<path d="M1007 2733 c-4 -3 -7 -17 -7 -30 0 -33 -17 -63 -48 -90 -31 -26 -23
-42 11 -24 28 15 52 54 60 96 6 32 -4 61 -16 48z"/>
<path d="M1086 2710 c13 -13 278 -49 368 -50 63 0 136 17 136 32 0 5 -10 6
-22 2 -32 -11 -201 -8 -278 5 -113 20 -217 25 -204 11z"/>
<path d="M1485 2358 c-2 -7 -11 -60 -20 -118 -8 -58 -22 -130 -30 -160 -17
-62 -20 -135 -6 -110 24 40 84 400 67 400 -4 0 -8 -6 -11 -12z"/>
<path d="M1180 1492 c0 -21 83 -32 95 -12 3 6 -3 10 -13 10 -11 0 -34 3 -51 6
-18 4 -31 2 -31 -4z"/>
<path d="M1060 622 c0 -12 44 -52 58 -52 21 0 13 18 -17 39 -31 23 -41 26 -41
13z"/>
<path d="M1061 503 c0 -21 -4 -54 -10 -73 -6 -19 -11 -61 -11 -93 l0 -57 68
-34 c37 -19 105 -54 152 -77 62 -32 100 -44 142 -47 57 -4 58 -4 58 21 0 15
13 41 30 60 17 19 30 37 30 40 0 3 -38 28 -84 56 -83 51 -147 110 -168 157 -6
13 -15 24 -19 24 -5 0 -5 8 -2 18 6 14 4 15 -9 4 -18 -14 -100 -2 -148 23
l-30 15 1 -37z"/>
<path d="M1855 251 c-49 -21 -107 -46 -127 -55 -36 -15 -38 -15 -48 4 -12 23
-70 50 -107 50 -31 0 -21 -17 15 -25 15 -3 41 -16 57 -29 l30 -24 -30 -12
c-16 -7 -49 -15 -73 -17 -58 -8 -63 -23 -7 -23 35 0 84 17 208 71 236 103 227
99 197 98 -14 0 -65 -17 -115 -38z"/>
<path d="M2270 281 c0 -5 8 -12 18 -15 20 -7 67 -64 59 -72 -3 -3 -37 -10 -76
-16 -71 -10 -88 -28 -28 -28 49 0 374 103 394 125 13 13 -63 -4 -169 -40 -57
-19 -104 -35 -105 -35 -2 0 -3 6 -3 14 0 23 -50 76 -71 76 -10 0 -19 -4 -19
-9z"/>
</g>
</svg>
