<?xml version="1.0" standalone="no"?>
<!DOCTYPE svg PUBLIC "-//W3C//DTD SVG 20010904//EN"
 "http://www.w3.org/TR/2001/REC-SVG-20010904/DTD/svg10.dtd">
<svg version="1.0" xmlns="http://www.w3.org/2000/svg"
 width="500.000000pt" height="500.000000pt" viewBox="0 0 500.000000 500.000000"
 preserveAspectRatio="xMidYMid meet">

<g transform="translate(0.000000,500.000000) scale(0.100000,-0.100000)"
fill="#000000" stroke="none">
<path d="M1831 3000 c-46 -7 -91 -45 -91 -78 -1 -9 -11 -29 -23 -43 -12 -14
-76 -89 -142 -165 -67 -76 -147 -171 -178 -210 -32 -40 -68 -75 -80 -78 -12
-3 -32 -20 -44 -38 -18 -27 -21 -45 -19 -99 1 -39 8 -76 17 -87 8 -11 50 -74
94 -139 91 -136 218 -273 279 -303 66 -31 102 -27 147 19 54 54 53 89 -7 212
-25 52 -54 116 -65 143 l-18 49 34 39 c19 21 35 42 35 48 0 20 277 330 295
330 3 0 34 -11 69 -24 118 -45 215 -68 255 -61 34 6 41 12 66 65 25 52 27 62
15 89 -15 38 -100 118 -176 167 -86 56 -353 174 -389 173 -16 -1 -50 -5 -74
-9z m109 -73 c-9 -11 -40 2 -40 17 0 7 3 15 6 19 8 8 42 -27 34 -36z m-100 9
c0 -18 -27 -39 -40 -31 -5 3 -10 15 -10 26 0 14 7 19 25 19 15 0 25 -6 25 -14z
m107 -104 c2 -19 -1 -23 -19 -20 -15 2 -24 11 -26 26 -3 19 0 23 19 20 14 -2
23 -11 26 -26z m-146 11 c15 9 22 9 34 -4 19 -19 10 -49 -15 -49 -17 0 -51 40
-49 57 0 4 3 3 6 -4 3 -10 9 -10 24 0z m371 -28 l23 -17 -25 7 c-45 12 -80 27
-80 36 0 11 55 -6 82 -26z m65 -130 c80 -37 95 -55 26 -31 -47 17 -123 54
-123 61 0 11 25 3 97 -30z m-267 -31 c0 -2 -7 -4 -15 -4 -8 0 -15 4 -15 10 0
5 7 7 15 4 8 -4 15 -8 15 -10z m-205 -165 c12 -19 -5 -23 -22 -6 -16 16 -16
17 -1 17 9 0 20 -5 23 -11z m-355 -104 c-7 -8 -16 -12 -21 -9 -13 8 -1 24 18
24 13 0 13 -3 3 -15z m0 -131 c0 -8 -5 -12 -10 -9 -6 4 -8 11 -5 16 9 14 15
11 15 -7z m-60 -4 c0 -5 -4 -10 -10 -10 -5 0 -10 5 -10 10 0 6 5 10 10 10 6 0
10 -4 10 -10z"/>
<path d="M2730 2884 c45 -17 74 -24 64 -14 -5 5 -25 12 -44 15 -19 3 -28 3
-20 -1z"/>
<path d="M2670 2794 c-19 -48 20 -83 54 -48 24 24 20 53 -10 64 -34 13 -33 14
-44 -16z"/>
<path d="M2826 2798 c-3 -13 -1 -27 4 -32 15 -15 40 2 40 29 0 33 -35 35 -44
3z"/>
<path d="M2885 2763 c-10 -32 -20 -74 -22 -95 l-5 -36 78 -17 c44 -9 125 -27
182 -40 56 -12 102 -18 102 -13 0 5 9 4 21 -2 11 -7 23 -9 26 -6 11 11 52 176
45 180 -8 5 -388 86 -402 86 -5 0 -16 -26 -25 -57z"/>
<path d="M2584 2745 c-20 -30 -11 -45 26 -45 56 0 77 23 46 49 -10 8 -15 9
-18 1 -2 -6 -11 -8 -21 -5 -9 4 -14 11 -11 16 13 21 -7 7 -22 -16z"/>
<path d="M2715 2726 c-23 -17 -14 -43 21 -56 32 -13 54 2 54 35 0 34 -41 46
-75 21z"/>
<path d="M3488 2723 c7 -3 16 -2 19 1 4 3 -2 6 -13 5 -11 0 -14 -3 -6 -6z"/>
<path d="M3337 2703 c-11 -10 -8 -41 5 -49 12 -8 38 21 38 43 0 13 -32 18 -43
6z"/>
<path d="M2643 2688 c-29 -38 -18 -68 24 -68 28 0 46 36 31 63 -10 20 -41 23
-55 5z"/>
<path d="M3452 2658 c-28 -28 -3 -72 39 -66 30 4 47 33 33 56 -14 21 -55 27
-72 10z m58 -38 c0 -5 -11 -10 -25 -10 -14 0 -25 5 -25 10 0 6 11 10 25 10 14
0 25 -4 25 -10z"/>
<path d="M2768 2593 c-42 -48 -28 -115 27 -133 81 -27 138 56 84 124 -25 32
-87 37 -111 9z"/>
<path d="M3336 2594 c-19 -19 -20 -25 -3 -48 19 -26 71 -18 75 12 7 46 -40 69
-72 36z m64 -34 c0 -12 -47 -14 -54 -2 -2 4 9 9 25 10 16 1 29 -2 29 -8z"/>
<path d="M3525 2554 c-32 -32 8 -81 53 -63 28 11 30 54 3 69 -27 14 -37 13
-56 -6z m50 -36 c6 -6 0 -8 -19 -6 -16 2 -31 9 -34 17 -3 10 2 11 19 6 13 -4
29 -12 34 -17z"/>
<path d="M3195 2518 c-32 -17 -45 -39 -45 -78 0 -62 61 -96 118 -66 52 27 57
82 13 127 -31 31 -53 35 -86 17z"/>
<path d="M3407 2493 c-12 -12 -7 -50 8 -63 18 -15 61 -6 69 16 10 26 -12 54
-43 54 -15 0 -31 -3 -34 -7z m50 -14 c20 -7 24 -12 14 -18 -18 -12 -51 -2 -51
15 0 17 1 17 37 3z"/>
<path d="M2995 2469 c-14 -43 45 -66 61 -24 8 19 -13 45 -37 45 -10 0 -21 -10
-24 -21z m40 -17 c-2 -9 -4 -19 -4 -21 -1 -2 -8 2 -16 9 -11 9 -12 15 -2 25
15 16 26 10 22 -13z"/>
<path d="M2945 2370 c-4 -6 -5 -14 -2 -16 10 -11 118 -31 122 -24 7 11 -15 26
-50 34 -16 4 -37 9 -47 12 -9 3 -19 0 -23 -6z"/>
</g>
</svg>
