<?xml version="1.0" standalone="no"?>
<!DOCTYPE svg PUBLIC "-//W3C//DTD SVG 20010904//EN"
 "http://www.w3.org/TR/2001/REC-SVG-20010904/DTD/svg10.dtd">
<svg version="1.0" xmlns="http://www.w3.org/2000/svg"
 width="500.000000pt" height="500.000000pt" viewBox="0 0 500.000000 500.000000"
 preserveAspectRatio="xMidYMid meet">

<g transform="translate(0.000000,500.000000) scale(0.100000,-0.100000)"
fill="#000000" stroke="none">
<path d="M3405 3660 c-4 -6 -16 -8 -28 -5 -16 5 -18 4 -8 -3 11 -8 9 -12 -10
-22 -37 -19 -69 -52 -69 -70 0 -9 11 -27 25 -40 28 -26 31 -41 14 -69 -9 -14
-9 -25 3 -49 16 -31 11 -104 -8 -121 -5 -4 -46 -23 -91 -41 -46 -18 -83 -37
-83 -42 0 -5 5 -19 11 -30 7 -13 7 -18 1 -14 -13 8 -16 -4 -38 -144 -20 -136
-15 -196 22 -235 20 -22 32 -26 64 -23 21 2 36 0 34 -4 -3 -5 -17 -8 -31 -8
-24 0 -25 -1 -19 -57 3 -32 8 -107 12 -166 5 -94 8 -107 22 -103 10 3 40 7 68
10 29 2 56 6 62 10 5 3 15 -15 21 -40 7 -26 14 -45 16 -42 3 2 0 21 -6 42 -6
21 -8 43 -6 49 2 7 -1 51 -7 100 -7 48 -10 90 -7 92 6 7 63 6 101 -2 l33 -6
-5 -146 c-2 -80 -3 -126 0 -101 4 51 27 82 84 111 21 10 39 19 42 19 3 0 7
-26 9 -57 l3 -58 2 63 c1 34 6 62 11 62 5 0 15 -33 21 -72 7 -40 16 -89 20
-108 14 -61 11 -9 -5 80 -19 107 -19 107 5 120 34 18 44 -21 51 -180 l5 -145
2 138 c2 137 2 139 33 183 74 108 105 224 96 362 -5 84 -50 281 -66 292 -5 3
-8 16 -7 30 1 24 -4 26 -136 55 l-138 30 0 38 c0 30 5 39 23 46 13 5 28 15 35
23 15 19 9 142 -9 165 -12 15 -12 16 1 9 8 -4 -1 6 -20 23 -22 19 -29 31 -20
31 9 0 5 6 -10 15 -29 17 -116 20 -125 5z m110 -21 c11 -17 2 -18 -19 -3 -17
12 -17 14 -4 14 9 0 20 -5 23 -11z m-208 -91 c-3 -8 -6 -5 -6 6 -1 11 2 17 5
13 3 -3 4 -12 1 -19z m98 -58 c0 -7 -6 -15 -12 -17 -8 -3 -13 4 -13 17 0 13 5
20 13 18 6 -3 12 -11 12 -18z m81 -52 c12 -19 16 -69 9 -115 -5 -35 -11 -44
-31 -49 -29 -7 -55 11 -47 33 5 12 3 14 -7 8 -8 -5 -11 -4 -7 2 3 5 25 8 48 7
23 -1 37 1 30 5 -9 6 -9 15 -1 36 11 28 3 48 -20 51 -6 1 -13 2 -16 3 -9 1 17
31 27 31 4 0 11 -5 15 -12z m75 -448 c-7 -136 -11 -251 -10 -256 1 -5 1 -24 0
-41 l-1 -33 -94 0 c-110 0 -99 -14 -117 144 -8 67 -16 101 -20 90 -16 -39 -8
9 21 134 17 72 28 136 25 144 -11 29 10 39 48 23 49 -20 81 -11 120 36 24 28
33 34 36 22 1 -9 -2 -127 -8 -263z m-333 165 c-16 -36 11 -91 55 -110 17 -8
25 -14 16 -15 -47 -1 -100 82 -81 125 7 14 14 25 17 25 2 0 -1 -11 -7 -25z
m442 -30 c0 -8 -7 -15 -15 -15 -13 0 -14 3 -3 15 16 18 18 18 18 0z m117 -7
c-3 -8 -6 -5 -6 6 -1 11 2 17 5 13 3 -3 4 -12 1 -19z m-595 -34 c-9 -16 -10
-14 -9 8 1 15 6 23 11 18 4 -4 4 -16 -2 -26z m449 9 c13 -16 12 -17 -3 -4 -17
13 -22 21 -14 21 2 0 10 -8 17 -17z m136 -25 c-3 -8 -6 -5 -6 6 -1 11 2 17 5
13 3 -3 4 -12 1 -19z m-106 -45 c-12 -20 -14 -14 -5 12 4 9 9 14 11 11 3 -2 0
-13 -6 -23z m96 -5 c-3 -7 -5 -2 -5 12 0 14 2 19 5 13 2 -7 2 -19 0 -25z m-10
-55 c-3 -10 -5 -4 -5 12 0 17 2 24 5 18 2 -7 2 -21 0 -30z m-620 -45 c-3 -7
-5 -2 -5 12 0 14 2 19 5 13 2 -7 2 -19 0 -25z m610 -55 c-2 -16 -4 -3 -4 27 0
30 2 43 4 28 2 -16 2 -40 0 -55z m25 -22 c-15 -32 -28 -55 -30 -50 -3 8 45
109 53 109 2 0 -8 -26 -23 -59z m-465 7 c-3 -8 -6 -5 -6 6 -1 11 2 17 5 13 3
-3 4 -12 1 -19z m-7 -26 c0 -5 -7 -17 -15 -28 -14 -18 -14 -17 -4 9 12 27 19
34 19 19z m407 -109 c-3 -2 -14 0 -24 7 -16 10 -16 11 0 6 9 -3 17 0 18 7 0 8
2 8 6 -1 3 -7 3 -16 0 -19z m20 5 c-3 -8 -6 -5 -6 6 -1 11 2 17 5 13 3 -3 4
-12 1 -19z m-57 -8 c18 -12 2 -12 -25 0 -13 6 -15 9 -5 9 8 0 22 -4 30 -9z
m47 -82 c-2 -13 -4 -3 -4 22 0 25 2 35 4 23 2 -13 2 -33 0 -45z m-214 15 c-7
-2 -19 -2 -25 0 -7 3 -2 5 12 5 14 0 19 -2 13 -5z m-173 -12 c0 -5 -9 -7 -20
-4 -11 3 -20 7 -20 9 0 2 9 4 20 4 11 0 20 -4 20 -9z m210 -75 c0 -62 -4 -87
-15 -96 -13 -11 -15 -1 -15 77 0 49 3 93 7 96 18 18 23 0 23 -77z m-273 68
c-3 -3 -12 -4 -19 -1 -8 3 -5 6 6 6 11 1 17 -2 13 -5z m-7 -20 c0 -2 -9 -4
-20 -4 -11 0 -20 4 -20 9 0 5 9 7 20 4 11 -3 20 -7 20 -9z m47 10 c-3 -3 -12
-4 -19 -1 -8 3 -5 6 6 6 11 1 17 -2 13 -5z"/>
<path d="M3460 3436 c0 -2 7 -7 16 -10 8 -3 12 -2 9 4 -6 10 -25 14 -25 6z"/>
<path d="M1432 3484 c-27 -19 -47 -57 -56 -105 -3 -20 -15 -44 -26 -54 -23
-21 -25 -36 -8 -82 11 -31 10 -35 -19 -63 -34 -34 -56 -95 -22 -65 9 9 36 19
58 22 51 7 74 38 69 95 -2 30 1 42 12 46 8 3 12 1 8 -3 -4 -4 -1 -17 7 -29 23
-31 20 -87 -5 -93 -19 -5 -19 -7 5 -53 14 -27 29 -51 35 -55 18 -11 48 5 76
42 25 33 26 37 10 48 -20 15 -13 36 25 74 18 18 31 44 35 70 6 35 10 41 25 36
25 -8 24 -4 -8 54 -28 50 -70 80 -116 82 -15 1 -17 3 -5 6 9 2 19 11 22 19 3
9 1 12 -4 9 -6 -3 -10 -1 -10 4 0 17 -83 13 -108 -5z m59 -43 c-8 -5 -16 -15
-17 -23 -2 -7 -7 -26 -13 -43 l-9 -30 -1 39 c-1 37 18 65 44 66 6 0 4 -4 -4
-9z m-58 -56 c-3 -9 -8 -14 -10 -11 -3 3 -2 9 2 15 9 16 15 13 8 -4z m-56
-102 c-3 -10 -5 -4 -5 12 0 17 2 24 5 18 2 -7 2 -21 0 -30z m156 17 c-4 -16
-8 -18 -19 -9 -20 16 -17 29 5 29 14 0 18 -5 14 -20z m78 -17 c-8 -15 -10 -15
-11 -2 0 17 10 32 18 25 2 -3 -1 -13 -7 -23z m-45 -71 c-10 -2 -22 0 -28 6 -6
6 0 7 19 4 21 -5 23 -7 9 -10z"/>
<path d="M2094 3395 c-4 -8 -14 -15 -25 -15 -20 0 -69 -65 -69 -91 0 -9 8 -27
18 -40 l19 -22 6 44 c10 79 70 102 127 49 18 -16 36 -27 42 -24 5 3 12 -3 15
-15 6 -25 18 -27 27 -5 9 23 9 23 -28 29 -31 6 -92 65 -67 65 6 0 15 -8 20
-19 7 -13 18 -17 36 -13 17 3 25 0 23 -8 -2 -7 4 -15 12 -17 12 -4 12 -3 2 5
-8 5 -13 13 -12 18 3 21 -9 44 -23 44 -8 0 -28 7 -43 15 -37 19 -73 19 -80 0z
m36 -18 c0 -7 -9 -13 -20 -14 -20 -2 -26 8 -13 20 11 12 33 8 33 -6z"/>
<path d="M2772 3334 c3 -11 9 -28 13 -39 7 -19 6 -19 -12 1 -66 76 -118 -3
-148 -226 -8 -57 -13 -105 -12 -106 1 -1 12 6 25 17 17 13 25 32 29 72 4 35 2
57 -6 61 -6 4 -11 19 -11 33 0 20 4 24 20 20 16 -4 20 0 20 18 0 13 10 32 23
42 12 10 22 24 23 31 4 48 4 48 23 23 12 -16 31 -25 64 -28 37 -4 47 -10 47
-23 0 -30 11 -49 25 -44 34 13 -22 136 -67 149 -63 18 -61 18 -56 -1z m-51
-28 c-6 -7 -17 -31 -25 -52 -13 -34 -15 -36 -15 -13 -1 23 32 79 46 79 3 0 0
-6 -6 -14z"/>
<path d="M1656 3267 c3 -10 9 -15 12 -12 3 3 0 11 -7 18 -10 9 -11 8 -5 -6z"/>
<path d="M2096 3245 c-8 -23 -8 -35 3 -35 13 0 20 25 11 39 -5 10 -9 8 -14 -4z"/>
<path d="M2190 3229 c0 -11 5 -17 10 -14 6 3 10 13 10 21 0 8 -4 14 -10 14 -5
0 -10 -9 -10 -21z"/>
<path d="M2725 3219 c-4 -6 -3 -15 3 -21 6 -6 11 -4 15 6 7 18 -9 31 -18 15z"/>
<path d="M2766 3217 c3 -10 9 -15 12 -12 3 3 0 11 -7 18 -10 9 -11 8 -5 -6z"/>
<path d="M2816 3215 c4 -8 10 -15 15 -15 5 0 9 7 9 15 0 8 -7 15 -15 15 -9 0
-12 -6 -9 -15z"/>
<path d="M2221 3193 c-1 -6 -4 -20 -7 -30 -5 -17 -5 -17 6 0 6 10 9 23 6 30
-3 9 -5 9 -5 0z"/>
<path d="M2109 3147 c5 -5 19 -7 32 -5 20 3 19 5 -9 9 -20 3 -29 2 -23 -4z"/>
<path d="M2820 3140 c0 -5 -8 -7 -17 -4 -15 5 -15 4 -3 -5 13 -9 13 -10 0 -15
-43 -13 -45 -14 -24 -15 11 -1 31 10 44 24 13 14 18 25 12 25 -7 0 -12 -4 -12
-10z"/>
<path d="M2070 3126 c0 -3 9 -10 20 -16 11 -6 20 -8 20 -6 0 3 -9 10 -20 16
-11 6 -20 8 -20 6z"/>
<path d="M2187 3123 c-3 -5 -1 -17 4 -28 7 -17 8 -17 8 8 1 27 -4 34 -12 20z"/>
<path d="M2735 3120 c3 -5 8 -10 11 -10 2 0 4 5 4 10 0 6 -5 10 -11 10 -5 0
-7 -4 -4 -10z"/>
<path d="M2871 3102 c-28 -23 -33 -33 -28 -54 4 -14 16 -28 27 -31 16 -4 20
-14 22 -49 1 -37 2 -38 5 -10 2 18 -2 55 -10 82 -8 28 -11 50 -7 50 5 0 12
-15 16 -32 6 -29 8 -30 15 -13 10 26 11 85 1 85 -4 0 -23 -13 -41 -28z"/>
<path d="M2991 3113 c0 -5 4 -17 9 -28 8 -18 9 -18 10 5 1 18 5 13 16 -22 8
-27 16 -48 18 -48 1 0 3 13 3 30 0 16 -4 27 -9 24 -4 -3 -8 6 -8 20 0 19 -5
26 -20 26 -11 0 -20 -3 -19 -7z"/>
<path d="M2140 3100 c-23 -7 -23 -8 -3 -9 12 -1 25 4 28 9 3 6 5 10 3 9 -2 -1
-14 -5 -28 -9z"/>
<path d="M2683 2993 l1 -108 11 95 c7 52 13 83 14 68 1 -31 15 -37 25 -11 6
15 -28 63 -45 63 -4 0 -7 -48 -6 -107z"/>
<path d="M2012 3050 c0 -14 2 -19 5 -12 2 6 2 18 0 25 -3 6 -5 1 -5 -13z"/>
<path d="M2180 3051 c-5 -11 -19 -23 -31 -26 -11 -4 -18 -9 -16 -12 9 -8 46
16 57 37 6 11 8 20 6 20 -3 0 -10 -9 -16 -19z"/>
<path d="M2231 3030 c-1 -25 -6 -53 -9 -63 -7 -16 -10 -15 -44 8 -42 29 -56
30 -83 11 -11 -7 -30 -16 -42 -20 -18 -6 -22 -2 -26 19 -4 24 -4 24 -3 -2 1
-24 5 -27 26 -25 56 8 55 8 54 -28 0 -19 -8 -91 -17 -159 l-17 -124 26 -34 27
-35 29 29 29 29 -16 138 c-8 76 -15 144 -15 151 0 8 -8 16 -17 18 -17 4 -17 5
0 6 9 0 17 8 17 16 0 11 7 10 35 -6 l35 -21 10 28 c6 15 9 46 7 68 l-4 41 -2
-45z"/>
<path d="M2971 3044 c0 -11 3 -14 6 -6 3 7 2 16 -1 19 -3 4 -6 -2 -5 -13z"/>
<path d="M2935 3026 c9 -13 23 -27 31 -30 9 -3 3 7 -13 24 -34 36 -39 38 -18
6z"/>
<path d="M2347 3023 c-13 -21 -37 -120 -36 -147 1 -21 4 -15 10 22 5 29 16 69
24 89 14 32 15 57 2 36z"/>
<path d="M1927 2965 c18 -33 28 -70 33 -123 l7 -77 2 65 c0 49 -5 77 -23 116
-13 28 -29 54 -34 58 -6 4 1 -14 15 -39z"/>
<path d="M2945 2970 c10 -11 20 -20 23 -20 3 0 -3 9 -13 20 -10 11 -20 20 -23
20 -3 0 3 -9 13 -20z"/>
<path d="M1536 2966 c5 -13 -3 -16 -50 -16 -31 0 -55 -4 -53 -9 1 -4 -13 -27
-32 -50 -31 -40 -35 -42 -82 -40 -27 2 -52 0 -55 -4 -4 -4 -18 -7 -31 -7 -45
0 -82 -27 -89 -65 -13 -71 17 -77 136 -23 36 17 70 31 75 32 6 1 26 11 45 21
24 13 50 18 82 16 l47 -3 6 49 c3 26 9 60 11 75 3 14 0 29 -5 33 -7 3 -8 0 -5
-9z"/>
<path d="M2786 2955 c-9 -26 -7 -32 5 -12 6 10 9 21 6 23 -2 3 -7 -2 -11 -11z"/>
<path d="M1306 2934 c-4 -9 -4 -19 -1 -22 3 -3 5 0 5 7 0 7 5 9 10 6 6 -3 10
-2 10 4 0 18 -18 21 -24 5z"/>
<path d="M3026 2932 c-6 -9 15 -87 27 -98 4 -4 1 14 -8 41 -8 27 -12 52 -9 57
3 4 3 8 0 8 -3 0 -7 -4 -10 -8z"/>
<path d="M2595 2910 c2 -14 11 -56 20 -93 19 -88 19 -90 -4 -77 -11 5 -26 10
-33 9 -7 0 2 -7 20 -15 17 -8 32 -16 32 -19 0 -2 -17 -13 -37 -24 -21 -11 -35
-20 -31 -21 11 0 158 68 158 74 0 3 -6 3 -14 0 -9 -4 -16 3 -19 18 -4 21 -4
21 -6 -3 -1 -22 -27 -48 -36 -37 -1 2 -10 44 -20 93 -10 50 -22 97 -27 105 -6
10 -7 7 -3 -10z"/>
<path d="M2902 2799 c-1 -70 -4 -142 -7 -160 l-5 -34 10 33 c6 17 9 89 7 160
l-3 127 -2 -126z"/>
<path d="M2963 2908 c-13 -6 -23 -20 -23 -30 0 -11 5 -16 10 -13 6 3 10 13 10
21 0 8 4 14 9 14 6 0 12 -21 14 -47 3 -47 3 -47 5 10 1 31 1 57 0 56 -2 0 -13
-5 -25 -11z"/>
<path d="M3006 2880 c4 -25 10 -49 14 -53 4 -5 4 13 -1 39 -12 61 -22 72 -13
14z"/>
<path d="M2204 2897 c-3 -8 -4 -36 -2 -63 l3 -49 40 0 40 0 0 60 0 60 -38 3
c-25 2 -39 -1 -43 -11z m76 -52 l0 -55 -35 0 -35 0 0 55 0 55 35 0 35 0 0 -55z"/>
<path d="M1651 2883 c-1 -6 -4 -20 -7 -30 -5 -15 -4 -15 5 -3 9 13 11 12 12
-5 0 -11 3 -15 5 -9 3 6 0 22 -5 35 -5 13 -10 19 -10 12z"/>
<path d="M2673 2830 c0 -25 2 -35 4 -22 2 12 2 32 0 45 -2 12 -4 2 -4 -23z"/>
<path d="M2334 2824 c-4 -17 -9 -22 -14 -14 -4 7 -11 -20 -15 -59 -4 -40 -4
-75 -1 -78 3 -4 6 9 6 28 0 19 11 60 24 92 13 31 20 57 15 57 -5 0 -12 -12
-15 -26z"/>
<path d="M2726 2827 c-22 -18 -27 -28 -22 -45 11 -32 23 -27 18 8 -3 18 0 30
7 30 6 0 11 -4 11 -9 0 -4 18 -5 40 -1 39 7 40 7 40 -23 0 -17 -8 -36 -17 -43
-16 -12 -17 -13 -1 -14 40 0 48 11 48 66 l0 54 -47 0 c-35 0 -56 -6 -77 -23z"/>
<path d="M2961 2824 c0 -11 3 -14 6 -6 3 7 2 16 -1 19 -3 4 -6 -2 -5 -13z"/>
<path d="M2768 2793 c6 -2 18 -2 25 0 6 3 1 5 -13 5 -14 0 -19 -2 -12 -5z"/>
<path d="M1897 2756 c25 -19 58 -100 68 -169 l7 -47 64 0 c36 0 64 4 64 10 0
6 16 10 35 10 19 0 35 -4 35 -9 0 -5 27 -11 60 -13 47 -2 59 0 55 10 -3 7 2
26 10 42 8 16 14 39 14 52 -1 20 -2 20 -6 3 -2 -11 -9 -32 -15 -48 l-10 -27
-148 1 -148 1 -11 43 c-6 24 -12 68 -13 97 -1 37 -2 43 -5 20 l-4 -33 -22 32
c-12 18 -29 34 -37 37 -8 2 -5 -3 7 -12z"/>
<path d="M1716 2731 c-24 -5 -32 -14 -46 -56 -13 -40 -14 -57 -5 -83 l11 -33
26 33 c14 18 32 47 42 65 16 33 22 84 9 82 -5 -1 -21 -4 -37 -8z"/>
<path d="M2943 2700 c0 -25 2 -35 4 -22 2 12 2 32 0 45 -2 12 -4 2 -4 -23z"/>
<path d="M1525 2710 l-90 -6 93 -2 c56 -1 92 2 92 8 0 6 -1 9 -2 8 -2 -1 -43
-5 -93 -8z"/>
<path d="M2678 2704 c-39 -21 -35 -28 5 -8 37 19 44 24 31 24 -5 -1 -21 -8
-36 -16z"/>
<path d="M2690 2680 c-19 -11 -31 -19 -27 -20 11 0 67 29 67 35 0 7 -1 7 -40
-15z"/>
<path d="M2700 2649 c-17 -13 -18 -17 -5 -10 33 17 51 31 40 31 -5 0 -21 -10
-35 -21z"/>
<path d="M2951 2637 c-1 -23 29 -77 43 -77 5 0 2 8 -6 18 -9 9 -20 31 -26 47
-7 19 -11 23 -11 12z"/>
<path d="M2714 2618 l-19 -23 23 19 c21 18 27 26 19 26 -2 0 -12 -10 -23 -22z"/>
<path d="M2785 2590 c-17 -32 -33 -37 -55 -17 -7 6 -5 0 6 -14 l19 -26 27 35
c16 19 28 39 28 43 0 17 -10 9 -25 -21z"/>
<path d="M3045 2579 c-16 -10 -25 -19 -19 -19 7 0 22 9 35 20 30 24 23 24 -16
-1z"/>
<path d="M2812 2565 c0 -16 2 -22 5 -12 2 9 2 23 0 30 -3 6 -5 -1 -5 -18z"/>
<path d="M2694 2569 c-3 -6 -20 -19 -38 -30 -17 -10 -26 -19 -21 -19 16 0 75
39 75 50 0 13 -7 13 -16 -1z"/>
<path d="M2850 2565 c-7 -9 -11 -17 -9 -20 3 -2 10 5 17 15 14 24 10 26 -8 5z"/>
<path d="M2534 2537 c-2 -7 -3 -65 -1 -128 l3 -114 2 118 c1 64 5 117 8 117 3
0 14 -5 25 -10 17 -10 18 -13 4 -26 -8 -9 -14 -30 -13 -47 l1 -32 4 32 c3 20
14 41 30 53 15 11 20 20 12 20 -8 0 -27 7 -42 15 -22 11 -29 12 -33 2z"/>
<path d="M2987 2525 c47 -21 52 -26 56 -62 l4 -38 1 41 c2 38 0 41 -43 62 -25
12 -51 22 -58 21 -6 0 11 -11 40 -24z"/>
<path d="M1926 2481 c-17 -18 -26 -36 -23 -48 4 -17 5 -17 6 1 0 11 13 33 28
48 15 15 24 28 22 28 -3 0 -18 -13 -33 -29z"/>
<path d="M2121 2494 c0 -11 3 -14 6 -6 3 7 2 16 -1 19 -3 4 -6 -2 -5 -13z"/>
<path d="M2312 2484 c10 -10 20 -16 22 -13 3 3 -5 11 -17 18 -21 13 -21 12 -5
-5z"/>
<path d="M2352 2450 c0 -14 2 -19 5 -12 2 6 2 18 0 25 -3 6 -5 1 -5 -13z"/>
<path d="M2121 2424 c0 -11 3 -14 6 -6 3 7 2 16 -1 19 -3 4 -6 -2 -5 -13z"/>
<path d="M2671 2404 c0 -11 3 -14 6 -6 3 7 2 16 -1 19 -3 4 -6 -2 -5 -13z"/>
<path d="M2962 2400 c0 -14 2 -19 5 -12 2 6 2 18 0 25 -3 6 -5 1 -5 -13z"/>
<path d="M2641 2394 c0 -11 3 -14 6 -6 3 7 2 16 -1 19 -3 4 -6 -2 -5 -13z"/>
<path d="M2992 2385 c0 -16 2 -22 5 -12 2 9 2 23 0 30 -3 6 -5 -1 -5 -18z"/>
<path d="M3333 2370 c0 -25 2 -35 4 -22 2 12 2 32 0 45 -2 12 -4 2 -4 -23z"/>
<path d="M3012 2375 c0 -16 2 -22 5 -12 2 9 2 23 0 30 -3 6 -5 -1 -5 -18z"/>
<path d="M1911 2374 c0 -11 3 -14 6 -6 3 7 2 16 -1 19 -3 4 -6 -2 -5 -13z"/>
<path d="M2757 2379 c7 -9 9 -20 5 -25 -4 -5 -3 -6 2 -2 5 4 17 -2 27 -14 13
-14 19 -16 18 -7 0 8 -14 25 -32 39 -18 13 -26 18 -20 9z"/>
<path d="M2159 2353 c-13 -16 -12 -17 4 -4 9 7 17 15 17 17 0 8 -8 3 -21 -13z"/>
<path d="M2342 2340 c0 -19 2 -27 5 -17 2 9 2 25 0 35 -3 9 -5 1 -5 -18z"/>
<path d="M3072 2340 c0 -19 2 -27 5 -17 2 9 2 25 0 35 -3 9 -5 1 -5 -18z"/>
<path d="M1504 2348 c-4 -7 -15 -24 -23 -38 -10 -15 -11 -21 -3 -16 13 7 46
66 38 66 -3 0 -8 -6 -12 -12z"/>
<path d="M2552 2330 c0 -14 2 -19 5 -12 2 6 2 18 0 25 -3 6 -5 1 -5 -13z"/>
<path d="M1533 2318 c-5 -7 -22 -35 -37 -63 -28 -53 -7 -28 32 37 22 36 25 52
5 26z"/>
<path d="M1921 2314 c0 -11 3 -14 6 -6 3 7 2 16 -1 19 -3 4 -6 -2 -5 -13z"/>
<path d="M3483 2255 c0 -27 2 -38 4 -22 2 15 2 37 0 50 -2 12 -4 0 -4 -28z"/>
<path d="M1931 2254 c0 -11 3 -14 6 -6 3 7 2 16 -1 19 -3 4 -6 -2 -5 -13z"/>
<path d="M2332 2230 c0 -19 2 -27 5 -17 2 9 2 25 0 35 -3 9 -5 1 -5 -18z"/>
<path d="M3473 2135 c0 -27 2 -38 4 -22 2 15 2 37 0 50 -2 12 -4 0 -4 -28z"/>
<path d="M2322 2130 c0 -14 2 -19 5 -12 2 6 2 18 0 25 -3 6 -5 1 -5 -13z"/>
<path d="M3732 2125 c0 -16 2 -22 5 -12 2 9 2 23 0 30 -3 6 -5 -1 -5 -18z"/>
<path d="M1951 2124 c0 -11 3 -14 6 -6 3 7 2 16 -1 19 -3 4 -6 -2 -5 -13z"/>
<path d="M2782 2120 c0 -14 2 -19 5 -12 2 6 2 18 0 25 -3 6 -5 1 -5 -13z"/>
<path d="M3702 2023 c-12 -37 -20 -69 -18 -71 2 -2 14 27 26 63 12 36 20 68
18 70 -2 3 -14 -26 -26 -62z"/>
<path d="M2782 2050 c0 -14 2 -19 5 -12 2 6 2 18 0 25 -3 6 -5 1 -5 -13z"/>
<path d="M2312 2040 c0 -14 2 -19 5 -12 2 6 2 18 0 25 -3 6 -5 1 -5 -13z"/>
<path d="M2131 1994 c0 -11 3 -14 6 -6 3 7 2 16 -1 19 -3 4 -6 -2 -5 -13z"/>
<path d="M3462 1828 c-2 -200 -1 -198 -82 -198 -25 0 -39 -4 -35 -10 3 -5 2
-10 -3 -10 -5 0 -12 -21 -16 -47 -3 -27 -14 -69 -23 -95 -17 -47 -17 -48 8
-75 14 -17 16 -22 5 -13 -16 13 -18 13 -15 1 7 -19 68 -51 99 -51 25 0 89 33
91 47 0 5 2 19 3 32 2 13 -8 57 -21 98 -12 41 -23 83 -23 94 0 11 -4 17 -10
14 -18 -11 -10 6 10 23 20 16 20 26 18 192 l-4 175 -2 -177z m-7 -458 c-3 -5
-12 -10 -18 -10 -7 0 -6 4 3 10 19 12 23 12 15 0z m-47 -17 c-10 -2 -26 -2
-35 0 -10 3 -2 5 17 5 19 0 27 -2 18 -5z"/>
<path d="M2301 1974 c0 -11 3 -14 6 -6 3 7 2 16 -1 19 -3 4 -6 -2 -5 -13z"/>
<path d="M3666 1925 c-9 -26 -7 -32 5 -12 6 10 9 21 6 23 -2 3 -7 -2 -11 -11z"/>
<path d="M2136 1915 c-3 -9 -6 -22 -5 -28 0 -7 5 -1 10 12 5 13 8 26 5 28 -2
2 -6 -3 -10 -12z"/>
<path d="M2730 1915 c0 -5 5 -17 10 -25 5 -8 10 -10 10 -5 0 6 -5 17 -10 25
-5 8 -10 11 -10 5z"/>
<path d="M1570 1878 c-30 -11 -109 -13 -140 -3 -19 6 -21 4 -16 -14 3 -12 9
-31 12 -42 3 -12 0 -32 -7 -45 -9 -18 -10 -30 -1 -49 9 -19 8 -39 -5 -91 -11
-45 -13 -74 -7 -92 11 -31 31 -39 37 -15 3 10 3 -3 0 -28 -4 -33 0 -59 15 -92
20 -44 23 -47 60 -47 46 0 66 18 81 77 9 34 8 57 -7 126 -11 46 -16 91 -12 98
18 34 20 57 5 72 -13 14 -13 23 -1 84 8 37 14 68 13 69 -1 1 -13 -3 -27 -8z
m-103 -280 c-3 -8 -6 -5 -6 6 -1 11 2 17 5 13 3 -3 4 -12 1 -19z m-10 -40 c-3
-8 -6 -5 -6 6 -1 11 2 17 5 13 3 -3 4 -12 1 -19z"/>
<path d="M2246 1815 c-9 -26 -7 -32 5 -12 6 10 9 21 6 23 -2 3 -7 -2 -11 -11z"/>
<path d="M2786 1822 c-2 -4 -1 -14 4 -22 7 -11 9 -9 7 8 -1 24 -3 26 -11 14z"/>
<path d="M2871 1804 c0 -11 3 -14 6 -6 3 7 2 16 -1 19 -3 4 -6 -2 -5 -13z"/>
<path d="M3515 1800 c3 -5 -3 -24 -15 -40 -23 -32 -22 -82 1 -104 9 -8 9 -5 0
14 -11 24 -11 24 3 6 13 -17 23 -95 17 -130 -1 -5 4 -13 11 -17 16 -11 89 -11
103 -1 18 12 16 60 -5 94 -12 21 -20 55 -21 96 -2 45 -6 62 -15 58 -6 -2 -29
4 -49 15 -20 11 -34 15 -30 9z m82 -266 c-3 -3 -12 -4 -19 -1 -8 3 -5 6 6 6
11 1 17 -2 13 -5z"/>
<path d="M2196 1743 c-22 -12 -34 -13 -47 -5 -16 10 -18 7 -21 -40 -3 -51 -4
-52 -38 -59 -22 -5 -47 -2 -68 7 -29 12 -32 12 -23 0 8 -10 7 -29 -6 -77 -9
-35 -17 -92 -17 -125 -1 -81 17 -104 85 -104 40 0 51 4 69 28 20 24 22 35 16
97 -3 39 -9 81 -12 94 -6 21 -5 22 14 12 56 -30 82 -2 80 87 -1 64 -1 65 -8
22 l-7 -45 -1 43 c-1 24 3 52 8 63 6 10 9 19 8 18 -2 -1 -16 -8 -32 -16z m-79
-127 c-5 -15 -97 -16 -97 -1 0 7 20 11 50 12 34 0 50 -3 47 -11z m-100 -68
c-3 -7 -5 -2 -5 12 0 14 2 19 5 13 2 -7 2 -19 0 -25z m100 -90 c-2 -18 -4 -4
-4 32 0 36 2 50 4 33 2 -18 2 -48 0 -65z m-110 -5 c-2 -16 -4 -5 -4 22 0 28 2
40 4 28 2 -13 2 -35 0 -50z m98 -43 c-3 -5 -12 -10 -18 -10 -7 0 -6 4 3 10 19
12 23 12 15 0z"/>
<path d="M2871 1694 c0 -11 3 -14 6 -6 3 7 2 16 -1 19 -3 4 -6 -2 -5 -13z"/>
<path d="M2821 1663 c7 -10 15 -20 16 -22 2 -2 3 3 3 11 0 9 -7 19 -16 22 -15
6 -15 4 -3 -11z"/>
<path d="M2858 1653 c7 -3 16 -2 19 1 4 3 -2 6 -13 5 -11 0 -14 -3 -6 -6z"/>
<path d="M2821 1614 c0 -11 3 -14 6 -6 3 7 2 16 -1 19 -3 4 -6 -2 -5 -13z"/>
<path d="M2921 1614 c0 -11 3 -14 6 -6 3 7 2 16 -1 19 -3 4 -6 -2 -5 -13z"/>
<path d="M2811 1564 c0 -11 3 -14 6 -6 3 7 2 16 -1 19 -3 4 -6 -2 -5 -13z"/>
<path d="M2800 1532 c0 -19 50 -62 72 -62 10 0 31 12 45 26 l26 26 -5 -26 c-3
-14 -1 -23 3 -20 5 3 9 19 9 37 l0 31 -29 -32 c-38 -41 -63 -41 -95 1 -14 17
-26 26 -26 19z"/>
<path d="M2829 1435 c5 -11 17 -29 26 -40 l16 -20 -10 20 c-5 11 -17 29 -26
40 l-16 20 10 -20z"/>
</g>
</svg>
